<svg width="20" height="20" viewBox="0 0 20 20" fill="none" xmlns="http://www.w3.org/2000/svg">
<path d="M10 8.82996C10.3103 8.82996 10.6079 8.95323 10.8273 9.17266C11.0468 9.39208 11.17 9.68969 11.17 10C11.17 10.3103 11.0468 10.6079 10.8273 10.8273C10.6079 11.0468 10.3103 11.17 10 11.17C9.68969 11.17 9.39208 11.0468 9.17266 10.8273C8.95323 10.6079 8.82996 10.3103 8.82996 10C8.82996 9.68969 8.95323 9.39208 9.17266 9.17266C9.39208 8.95323 9.68969 8.82996 10 8.82996ZM0.897106 0.897106C2.57026 -0.776048 6.19738 -0.0272239 10 2.46496C13.8026 -0.0272239 17.4297 -0.776048 19.1029 0.897106C20.776 2.57026 20.0272 6.19738 17.535 10C20.0272 13.8026 20.776 17.4297 19.1029 19.1029C17.4297 20.776 13.8026 20.0272 10 17.535C6.19738 20.0272 2.57026 20.776 0.897106 19.1029C-0.776048 17.4297 -0.0272239 13.8026 2.46496 10C-0.0272239 6.19738 -0.776048 2.57026 0.897106 0.897106ZM14.1419 5.85807C14.8557 6.58349 15.5109 7.32061 16.1193 8.05774C17.7339 5.56556 18.319 3.42439 17.4414 2.55856C16.5756 1.68103 14.4344 2.26605 11.9423 3.8807C12.6794 4.48912 13.4165 5.14434 14.1419 5.85807ZM5.85807 14.1419C5.14434 13.4165 4.48912 12.6794 3.8807 11.9423C2.26605 14.4344 1.68103 16.5756 2.55856 17.4414C3.42439 18.319 5.56556 17.7339 8.05774 16.1193C7.32061 15.5109 6.58349 14.8557 5.85807 14.1419ZM2.55856 2.55856C1.68103 3.42439 2.26605 5.56556 3.8807 8.05774C4.48912 7.32061 5.14434 6.58349 5.85807 5.85807C6.58349 5.14434 7.32061 4.48912 8.05774 3.8807C5.56556 2.26605 3.42439 1.68103 2.55856 2.55856ZM7.51952 12.4805C8.33855 13.2995 9.18097 14.0483 10 14.7153C10.819 14.0483 11.6615 13.2995 12.4805 12.4805C13.2995 11.6615 14.0483 10.819 14.7153 10C14.0483 9.18097 13.2995 8.33855 12.4805 7.51952C11.6615 6.70049 10.819 5.95167 10 5.28475C9.18097 5.95167 8.33855 6.70049 7.51952 7.51952C6.70049 8.33855 5.95167 9.18097 5.28475 10C5.95167 10.819 6.70049 11.6615 7.51952 12.4805ZM17.4414 17.4414C18.319 16.5756 17.7339 14.4344 16.1193 11.9423C15.5109 12.6794 14.8557 13.4165 14.1419 14.1419C13.4165 14.8557 12.6794 15.5109 11.9423 16.1193C14.4344 17.7339 16.5756 18.319 17.4414 17.4414Z" fill="#00A8FB"/>
</svg>
