<svg width="20" height="20" viewBox="0 0 20 20" fill="none" xmlns="http://www.w3.org/2000/svg">
<path fill-rule="evenodd" clip-rule="evenodd" d="M7.22811 0.0142101C7.43943 0.0398484 7.6435 0.10576 7.82866 0.208183C8.01381 0.310605 8.17644 0.447533 8.30724 0.611146C8.43805 0.774759 8.53447 0.961855 8.59101 1.16175C8.64755 1.36164 8.66309 1.57042 8.63676 1.77617L8.25622 4.73803H12.5546L12.9859 1.38462C13.0393 0.969104 13.26 0.591231 13.5995 0.33413C13.9389 0.0770296 14.3694 -0.0382386 14.7962 0.0136836C15.223 0.0656059 15.6111 0.280465 15.8752 0.610995C16.1393 0.941525 16.2577 1.36065 16.2043 1.77617L15.8238 4.73803H18.3784C18.8085 4.73803 19.2209 4.90437 19.525 5.20045C19.8291 5.49654 20 5.89811 20 6.31684C20 6.73557 19.8291 7.13715 19.525 7.43323C19.2209 7.72932 18.8085 7.89566 18.3784 7.89566H15.4184L14.8778 12.1058H17.8378C18.2679 12.1058 18.6804 12.2722 18.9845 12.5683C19.2886 12.8643 19.4595 13.2659 19.4595 13.6847C19.4595 14.1034 19.2886 14.505 18.9845 14.801C18.6804 15.0971 18.2679 15.2635 17.8378 15.2635H14.4724L14.0422 18.6169C13.9888 19.0324 13.7681 19.4103 13.4287 19.6674C13.0892 19.9245 12.6587 20.0397 12.2319 19.9878C11.8051 19.9359 11.417 19.721 11.1529 19.3905C10.8888 19.06 10.7705 18.6408 10.8238 18.2253L11.2032 15.2635H6.90595L6.47568 18.6169C6.42235 19.0324 6.20166 19.4103 5.86217 19.6674C5.52268 19.9245 5.09219 20.0397 4.6654 19.9878C4.23862 19.9359 3.8505 19.721 3.58643 19.3905C3.32236 19.06 3.20397 18.6408 3.2573 18.2253L3.63568 15.2635H1.62162C1.19154 15.2635 0.779075 15.0971 0.474962 14.801C0.170849 14.505 0 14.1034 0 13.6847C0 13.2659 0.170849 12.8643 0.474962 12.5683C0.779075 12.2722 1.19154 12.1058 1.62162 12.1058H4.04108L4.58162 7.89566H2.16216C1.73208 7.89566 1.31962 7.72932 1.0155 7.43323C0.711389 7.13715 0.540541 6.73557 0.540541 6.31684C0.540541 5.89811 0.711389 5.49654 1.0155 5.20045C1.31962 4.90437 1.73208 4.73803 2.16216 4.73803H4.98703L5.41838 1.38462C5.44458 1.17878 5.51219 0.979991 5.61733 0.7996C5.72247 0.619209 5.86309 0.460756 6.03115 0.333296C6.19922 0.205835 6.39143 0.111864 6.59681 0.056753C6.80219 0.00164177 7.0167 -0.0135299 7.22811 0.0121049V0.0142101ZM11.6108 12.1058L12.1514 7.89566H7.85189L7.31135 12.1058H11.6108Z" fill="#A65CD0"/>
</svg>
