<svg width="20" height="20" viewBox="0 0 20 20" fill="none" xmlns="http://www.w3.org/2000/svg">
<path d="M9.33375 0.467457C9.38347 0.330481 9.47415 0.212135 9.59348 0.1285C9.71281 0.0448659 9.85499 0 10.0007 0C10.1464 0 10.2886 0.0448659 10.4079 0.1285C10.5273 0.212135 10.618 0.330481 10.6677 0.467457L11.346 2.32075C11.878 3.77362 12.7203 5.09304 13.8143 6.18708C14.9084 7.28111 16.2278 8.12346 17.6807 8.65544L19.5325 9.33375C19.6695 9.38347 19.7879 9.47415 19.8715 9.59348C19.9551 9.71281 20 9.85499 20 10.0007C20 10.1464 19.9551 10.2886 19.8715 10.4079C19.7879 10.5273 19.6695 10.618 19.5325 10.6677L17.6807 11.346C16.2278 11.878 14.9084 12.7203 13.8143 13.8143C12.7203 14.9084 11.878 16.2278 11.346 17.6807L10.6677 19.5325C10.618 19.6695 10.5273 19.7879 10.4079 19.8715C10.2886 19.9551 10.1464 20 10.0007 20C9.85499 20 9.71281 19.9551 9.59348 19.8715C9.47415 19.7879 9.38347 19.6695 9.33375 19.5325L8.65544 17.6807C8.12346 16.2278 7.28111 14.9084 6.18708 13.8143C5.09304 12.7203 3.77362 11.878 2.32075 11.346L0.467457 10.6677C0.330481 10.618 0.212135 10.5273 0.1285 10.4079C0.0448659 10.2886 0 10.1464 0 10.0007C0 9.85499 0.0448659 9.71281 0.1285 9.59348C0.212135 9.47415 0.330481 9.38347 0.467457 9.33375L2.32075 8.65544C3.77362 8.12346 5.09304 7.28111 6.18708 6.18708C7.28111 5.09304 8.12346 3.77362 8.65544 2.32075L9.33375 0.467457Z" fill="#FC6A03"/>
</svg>
