<svg width="110" height="110" viewBox="0 0 110 110" fill="none" xmlns="http://www.w3.org/2000/svg">
<rect width="110" height="110" rx="30" fill="#F68B1D"/>
<path d="M54.1013 88.08C49.1213 88.08 44.5013 87.27 40.2413 85.65C36.0413 84.03 32.3813 81.75 29.2612 78.81C26.2013 75.87 23.8013 72.42 22.0613 68.46C20.3813 64.5 19.5413 60.18 19.5413 55.5C19.5413 50.82 20.3813 46.5 22.0613 42.54C23.8013 38.58 26.2313 35.13 29.3513 32.19C32.4713 29.25 36.1313 26.97 40.3313 25.35C44.5313 23.73 49.0913 22.92 54.0113 22.92C58.9913 22.92 63.5512 23.73 67.6913 25.35C71.8913 26.97 75.5213 29.25 78.5813 32.19C81.7013 35.13 84.1313 38.58 85.8713 42.54C87.6113 46.44 88.4813 50.76 88.4813 55.5C88.4813 60.18 87.6113 64.53 85.8713 68.55C84.1313 72.51 81.7013 75.96 78.5813 78.9C75.5213 81.78 71.8913 84.03 67.6913 85.65C63.5512 87.27 59.0212 88.08 54.1013 88.08ZM54.0113 75.66C56.8313 75.66 59.4113 75.18 61.7513 74.22C64.1513 73.26 66.2513 71.88 68.0513 70.08C69.8513 68.28 71.2313 66.15 72.1913 63.69C73.2113 61.23 73.7213 58.5 73.7213 55.5C73.7213 52.5 73.2113 49.77 72.1913 47.31C71.2313 44.85 69.8513 42.72 68.0513 40.92C66.3113 39.12 64.2413 37.74 61.8413 36.78C59.4413 35.82 56.8313 35.34 54.0113 35.34C51.1913 35.34 48.5813 35.82 46.1813 36.78C43.8413 37.74 41.7713 39.12 39.9713 40.92C38.1713 42.72 36.7613 44.85 35.7413 47.31C34.7813 49.77 34.3013 52.5 34.3013 55.5C34.3013 58.44 34.7813 61.17 35.7413 63.69C36.7613 66.15 38.1413 68.28 39.8813 70.08C41.6813 71.88 43.7813 73.26 46.1813 74.22C48.5813 75.18 51.1913 75.66 54.0113 75.66Z" fill="white"/>
</svg>
