<svg width="110" height="110" viewBox="0 0 110 110" fill="none" xmlns="http://www.w3.org/2000/svg">
<rect width="110" height="110" rx="30" fill="#F68B1D"/>
<path d="M53.4737 88.08C48.4337 88.08 43.6037 87.42 38.9837 86.1C34.3637 84.72 30.6437 82.95 27.8237 80.79L32.7737 69.81C35.4737 71.73 38.6537 73.32 42.3137 74.58C46.0337 75.78 49.7837 76.38 53.5637 76.38C56.4437 76.38 58.7537 76.11 60.4937 75.57C62.2937 74.97 63.6137 74.16 64.4537 73.14C65.2937 72.12 65.7137 70.95 65.7137 69.63C65.7137 67.95 65.0537 66.63 63.7337 65.67C62.4137 64.65 60.6737 63.84 58.5137 63.24C56.3537 62.58 53.9537 61.98 51.3137 61.44C48.7337 60.84 46.1237 60.12 43.4837 59.28C40.9037 58.44 38.5337 57.36 36.3737 56.04C34.2137 54.72 32.4437 52.98 31.0637 50.82C29.7437 48.66 29.0837 45.9 29.0837 42.54C29.0837 38.94 30.0437 35.67 31.9637 32.73C33.9437 29.73 36.8837 27.36 40.7837 25.62C44.7437 23.82 49.6937 22.92 55.6337 22.92C59.5937 22.92 63.4937 23.4 67.3337 24.36C71.1737 25.26 74.5637 26.64 77.5037 28.5L73.0037 39.57C70.0637 37.89 67.1237 36.66 64.1837 35.88C61.2437 35.04 58.3637 34.62 55.5437 34.62C52.7237 34.62 50.4137 34.95 48.6137 35.61C46.8137 36.27 45.5237 37.14 44.7437 38.22C43.9637 39.24 43.5737 40.44 43.5737 41.82C43.5737 43.44 44.2337 44.76 45.5537 45.78C46.8737 46.74 48.6137 47.52 50.7737 48.12C52.9337 48.72 55.3037 49.32 57.8837 49.92C60.5237 50.52 63.1337 51.21 65.7137 51.99C68.3537 52.77 70.7537 53.82 72.9137 55.14C75.0737 56.46 76.8137 58.2 78.1337 60.36C79.5137 62.52 80.2037 65.25 80.2037 68.55C80.2037 72.09 79.2137 75.33 77.2337 78.27C75.2537 81.21 72.2837 83.58 68.3237 85.38C64.4237 87.18 59.4737 88.08 53.4737 88.08Z" fill="white"/>
</svg>
