<svg width="211" height="211" viewBox="0 0 211 211" fill="none" xmlns="http://www.w3.org/2000/svg">
<path d="M99.4877 193.923C100.211 193.974 100.847 194.136 101.394 194.409C101.941 194.693 102.365 195.06 102.665 195.508C102.954 195.956 103.079 196.462 103.04 197.026C103.006 197.505 102.869 197.934 102.629 198.313C102.388 198.702 102.02 199.072 101.525 199.423C101.019 199.783 100.357 200.148 99.5397 200.519C98.8433 200.844 98.2996 201.127 97.9086 201.367C97.5062 201.617 97.2166 201.859 97.0399 202.092C96.8624 202.336 96.7636 202.602 96.7435 202.889C96.7145 203.304 96.8347 203.65 97.1042 203.925C97.363 204.2 97.7531 204.355 98.2745 204.392C98.8384 204.431 99.2847 204.318 99.6134 204.052C99.9413 203.797 100.121 203.446 100.152 202.999C100.168 202.776 100.151 202.561 100.101 202.354C100.041 202.147 99.9233 201.914 99.7489 201.656C99.5638 201.397 99.3088 201.069 98.9837 200.672L93.5033 194.178L94.2102 193.474L99.928 200.241C100.273 200.661 100.547 201.022 100.75 201.325C100.942 201.638 101.072 201.93 101.138 202.202C101.205 202.474 101.228 202.759 101.207 203.057C101.173 203.536 101.032 203.943 100.784 204.279C100.525 204.624 100.176 204.878 99.7369 205.039C99.2971 205.212 98.7899 205.278 98.2153 205.238C97.6939 205.201 97.248 205.079 96.8776 204.872C96.4958 204.674 96.21 204.403 96.0203 204.058C95.8199 203.712 95.7361 203.305 95.7688 202.837C95.7971 202.433 95.9246 202.062 96.1513 201.725C96.3674 201.388 96.7108 201.064 97.1815 200.755C97.6515 200.456 98.284 200.126 99.0792 199.765C99.7756 199.439 100.331 199.136 100.747 198.855C101.151 198.573 101.444 198.289 101.624 198.002C101.804 197.726 101.906 197.412 101.931 197.061C101.959 196.657 101.872 196.292 101.67 195.968C101.457 195.654 101.154 195.398 100.762 195.199C100.358 195.01 99.89 194.897 99.358 194.86C98.6131 194.808 97.9373 194.916 97.3305 195.184C96.7237 195.451 96.2015 195.885 95.7639 196.485C95.3156 197.085 94.9679 197.852 94.7208 198.786L93.8311 198.435C94.1077 197.385 94.516 196.516 95.0561 195.827C95.5962 195.137 96.241 194.632 96.9906 194.31C97.7402 193.988 98.5726 193.859 99.4877 193.923Z" fill="#F68B1D"/>
<path d="M87.199 192.239C87.9085 192.39 88.5154 192.639 89.0195 192.986C89.5215 193.344 89.8899 193.765 90.1246 194.252C90.3489 194.735 90.4023 195.254 90.2847 195.807C90.1849 196.276 89.9897 196.682 89.6989 197.024C89.406 197.376 88.9901 197.691 88.4512 197.969C87.8996 198.255 87.1934 198.525 86.3326 198.778C85.5977 199.004 85.0199 199.208 84.5993 199.391C84.166 199.583 83.8456 199.782 83.6381 199.988C83.4284 200.205 83.2936 200.455 83.2337 200.737C83.1472 201.144 83.2182 201.502 83.4467 201.812C83.6647 202.12 84.0294 202.329 84.5406 202.437C85.0936 202.555 85.5513 202.505 85.9138 202.288C86.274 202.081 86.5007 201.758 86.5938 201.32C86.6404 201.101 86.6535 200.886 86.633 200.674C86.6021 200.46 86.5183 200.213 86.3815 199.934C86.2342 199.651 86.0273 199.291 85.7606 198.853L81.2374 191.659L82.0354 191.06L86.7558 198.557C87.0389 199.021 87.2601 199.417 87.4193 199.745C87.5659 200.082 87.6532 200.389 87.6812 200.668C87.7092 200.946 87.6922 201.232 87.6301 201.524C87.5303 201.993 87.3343 202.377 87.042 202.675C86.737 202.981 86.3559 203.183 85.8987 203.282C85.4392 203.392 84.9277 203.387 84.3643 203.267C83.8531 203.158 83.4285 202.975 83.0906 202.718C82.74 202.469 82.4948 202.161 82.3549 201.793C82.2045 201.423 82.1781 201.008 82.2757 200.549C82.36 200.153 82.5378 199.804 82.8092 199.501C83.0702 199.197 83.4553 198.924 83.9645 198.684C84.4715 198.453 85.1438 198.215 85.9815 197.967C86.7164 197.742 87.3091 197.519 87.7594 197.298C88.1994 197.076 88.5286 196.835 88.7472 196.576C88.9636 196.328 89.1084 196.031 89.1816 195.687C89.2658 195.29 89.2306 194.918 89.0758 194.568C88.9084 194.228 88.6441 193.931 88.2831 193.68C87.9095 193.437 87.4618 193.26 86.9402 193.149C86.2098 192.994 85.5256 193.007 84.8874 193.187C84.2492 193.368 83.6717 193.725 83.1548 194.259C82.6275 194.79 82.1765 195.501 81.8017 196.392L80.9695 195.921C81.3895 194.919 81.9149 194.115 82.5457 193.508C83.1764 192.9 83.8853 192.489 84.6724 192.275C85.4595 192.06 86.3017 192.049 87.199 192.239Z" fill="#F68B1D"/>
<path d="M75.2644 188.862C75.946 189.11 76.5123 189.441 76.9633 189.855C77.4106 190.279 77.7167 190.748 77.8815 191.262C78.0362 191.772 78.0169 192.293 77.8236 192.824C77.6594 193.275 77.4096 193.65 77.0741 193.948C76.735 194.255 76.2793 194.51 75.707 194.71C75.1209 194.917 74.3841 195.085 73.4964 195.216C72.7372 195.337 72.1367 195.459 71.6946 195.582C71.2389 195.711 70.894 195.864 70.6597 196.04C70.4218 196.226 70.2536 196.454 70.1551 196.725C70.0128 197.115 70.0332 197.48 70.2163 197.819C70.3893 198.155 70.7214 198.412 71.2126 198.591C71.7438 198.784 72.204 198.798 72.5932 198.634C72.9787 198.479 73.2481 198.191 73.4013 197.77C73.4779 197.559 73.5208 197.348 73.53 197.136C73.5292 196.92 73.4805 196.664 73.384 196.367C73.2774 196.067 73.1226 195.682 72.9195 195.211L69.4415 187.458L70.3152 186.975L73.9462 195.057C74.162 195.555 74.3259 195.978 74.4379 196.325C74.5362 196.679 74.5799 196.996 74.5689 197.275C74.5579 197.555 74.5013 197.835 74.3991 198.116C74.235 198.567 73.9874 198.92 73.6565 199.174C73.312 199.434 72.9064 199.582 72.4398 199.616C71.9696 199.661 71.4638 199.585 70.9225 199.388C70.4314 199.209 70.0364 198.969 69.7376 198.667C69.4251 198.372 69.2252 198.032 69.1378 197.648C69.0404 197.261 69.0719 196.847 69.2325 196.406C69.3711 196.025 69.5958 195.704 69.9067 195.442C70.2075 195.177 70.6268 194.961 71.1645 194.793C71.6986 194.636 72.3976 194.493 73.2615 194.365C74.0207 194.244 74.6386 194.105 75.1153 193.95C75.5819 193.79 75.9415 193.598 76.194 193.372C76.4428 193.156 76.6275 192.883 76.7479 192.552C76.8865 192.171 76.9035 191.797 76.7988 191.429C76.6804 191.069 76.46 190.739 76.1374 190.44C75.8012 190.147 75.3826 189.909 74.8814 189.727C74.1798 189.472 73.5004 189.389 72.8433 189.479C72.1862 189.569 71.5646 189.842 70.9785 190.299C70.3824 190.751 69.8368 191.393 69.3417 192.223L68.5832 191.64C69.1385 190.707 69.7707 189.984 70.4798 189.47C71.189 188.956 71.9482 188.648 72.7575 188.545C73.5668 188.443 74.4024 188.548 75.2644 188.862Z" fill="#F68B1D"/>
<path d="M63.9161 183.856C64.5566 184.197 65.0713 184.603 65.4603 185.076C65.8442 185.558 66.0821 186.065 66.1737 186.597C66.2559 187.124 66.1644 187.637 65.899 188.136C65.6736 188.56 65.3741 188.896 65.0005 189.144C64.6218 189.402 64.1351 189.59 63.5405 189.709C62.9314 189.832 62.1782 189.897 61.2809 189.903C60.5123 189.917 59.9006 189.954 59.4458 190.014C58.9765 190.079 58.6137 190.182 58.3572 190.323C58.0958 190.474 57.8975 190.677 57.7622 190.931C57.5669 191.298 57.5363 191.663 57.6705 192.024C57.7951 192.38 58.0882 192.681 58.5497 192.926C59.0489 193.192 59.5026 193.27 59.911 193.161C60.3143 193.061 60.6211 192.814 60.8314 192.418C60.9366 192.22 61.0085 192.017 61.0471 191.808C61.0763 191.594 61.0638 191.334 61.0094 191.027C60.9457 190.715 60.846 190.312 60.7105 189.817L58.3453 181.655L59.2776 181.299L61.7486 189.807C61.8929 190.331 61.9964 190.772 62.059 191.132C62.1071 191.496 62.1063 191.815 62.0564 192.091C62.0066 192.366 61.9115 192.636 61.7713 192.9C61.546 193.324 61.2518 193.638 60.8888 193.844C60.5113 194.054 60.0891 194.144 59.6223 194.113C59.1504 194.091 58.6602 193.946 58.1516 193.675C57.6901 193.43 57.3324 193.137 57.0785 192.797C56.8101 192.461 56.6594 192.097 56.6263 191.704C56.5837 191.307 56.6726 190.902 56.893 190.487C57.0833 190.129 57.3505 189.842 57.6947 189.627C58.0295 189.406 58.4748 189.25 59.0306 189.159C59.5814 189.078 60.2935 189.033 61.1669 189.027C61.9355 189.012 62.5667 188.962 63.0604 188.874C63.5446 188.781 63.9275 188.64 64.209 188.452C64.4855 188.272 64.7063 188.027 64.8716 187.717C65.0619 187.359 65.1308 186.991 65.0782 186.612C65.0112 186.238 64.8388 185.881 64.5611 185.54C64.2689 185.203 63.8873 184.91 63.4164 184.66C62.7572 184.309 62.0959 184.133 61.4327 184.13C60.7695 184.128 60.1159 184.312 59.472 184.682C58.8186 185.048 58.1891 185.607 57.5833 186.36L56.9132 185.678C57.593 184.831 58.3197 184.203 59.0935 183.793C59.8672 183.382 60.6619 183.183 61.4776 183.194C62.2933 183.205 63.1062 183.425 63.9161 183.856Z" fill="#F68B1D"/>
<path d="M53.3747 177.32C53.9615 177.746 54.4146 178.22 54.734 178.742C55.0472 179.273 55.2122 179.808 55.2289 180.348C55.237 180.881 55.0749 181.377 54.7426 181.834C54.4604 182.222 54.1171 182.513 53.7125 182.707C53.3017 182.91 52.7936 183.028 52.1882 183.063C51.5678 183.1 50.813 183.06 49.9236 182.941C49.1605 182.848 48.5496 182.8 48.0908 182.796C47.6171 182.794 47.2435 182.846 46.9698 182.95C46.6899 183.064 46.4653 183.237 46.296 183.47C46.0515 183.806 45.9705 184.163 46.053 184.539C46.1269 184.909 46.3753 185.248 46.7982 185.555C47.2555 185.887 47.694 186.028 48.1135 185.977C48.5268 185.934 48.8651 185.732 49.1284 185.369C49.2601 185.188 49.3596 184.997 49.4269 184.795C49.4856 184.587 49.5094 184.328 49.4983 184.016C49.4786 183.699 49.436 183.285 49.3707 182.776L48.1644 174.365L49.1372 174.142L50.4 182.911C50.4701 183.45 50.5111 183.902 50.523 184.266C50.5201 184.633 50.4747 184.95 50.387 185.216C50.2993 185.482 50.1677 185.735 49.9921 185.977C49.71 186.365 49.3749 186.636 48.9867 186.789C48.5837 186.945 48.1532 186.975 47.6952 186.879C47.2309 186.792 46.7657 186.58 46.2997 186.241C45.8769 185.934 45.5634 185.594 45.3593 185.222C45.1404 184.852 45.0418 184.47 45.0635 184.077C45.0767 183.678 45.2212 183.289 45.497 182.909C45.7353 182.581 46.0398 182.334 46.4107 182.168C46.7729 181.997 47.2356 181.904 47.7987 181.891C48.3555 181.887 49.0668 181.943 49.9326 182.057C50.6957 182.15 51.3278 182.188 51.8289 182.169C52.3214 182.145 52.7202 182.059 53.0252 181.911C53.3239 181.772 53.5767 181.56 53.7836 181.276C54.0218 180.948 54.1413 180.593 54.1419 180.211C54.1276 179.831 54.0066 179.453 53.779 179.077C53.5365 178.703 53.1995 178.359 52.768 178.046C52.164 177.607 51.5337 177.34 50.8773 177.246C50.2208 177.151 49.548 177.242 48.8588 177.52C48.161 177.79 47.4597 178.257 46.755 178.918L46.1865 178.149C46.9774 177.405 47.7845 176.884 48.6078 176.586C49.4311 176.287 50.2459 176.2 51.0521 176.325C51.8584 176.449 52.6326 176.781 53.3747 177.32Z" fill="#F68B1D"/>
<path d="M43.8458 169.38C44.3676 169.884 44.7503 170.417 44.9939 170.978C45.2302 171.547 45.319 172.1 45.2605 172.637C45.1943 173.166 44.9648 173.634 44.5721 174.041C44.2387 174.386 43.8582 174.626 43.4306 174.762C42.9955 174.905 42.4758 174.952 41.8715 174.902C41.252 174.853 40.5102 174.707 39.646 174.466C38.9033 174.268 38.305 174.135 37.8512 174.067C37.3824 174 37.0052 173.999 36.7196 174.065C36.4267 174.138 36.1802 174.278 35.9802 174.485C35.6912 174.784 35.5614 175.126 35.5907 175.51C35.6124 175.887 35.8112 176.257 36.1872 176.62C36.5938 177.012 37.0084 177.213 37.431 177.22C37.8462 177.236 38.2094 177.082 38.5206 176.76C38.6762 176.599 38.8014 176.423 38.8961 176.233C38.9832 176.035 39.0429 175.782 39.0752 175.472C39.0998 175.155 39.1152 174.739 39.1213 174.226L39.0975 165.729L40.0918 165.644L40.1219 174.503C40.1163 175.046 40.0941 175.499 40.0551 175.862C40.0011 176.225 39.9122 176.532 39.7883 176.783C39.6645 177.034 39.4988 177.267 39.2913 177.482C38.9579 177.827 38.5883 178.049 38.1827 178.146C37.762 178.244 37.3314 178.214 36.8911 178.056C36.4434 177.905 36.0124 177.63 35.5981 177.23C35.2221 176.867 34.959 176.487 34.8087 176.089C34.6434 175.692 34.5988 175.301 34.6751 174.915C34.7436 174.521 34.9409 174.156 35.267 173.818C35.5485 173.527 35.8845 173.325 36.2748 173.212C36.6574 173.092 37.1284 173.065 37.6878 173.131C38.2398 173.204 38.9365 173.358 39.7779 173.592C40.5206 173.791 41.1414 173.916 41.6402 173.967C42.1313 174.012 42.5381 173.982 42.8607 173.878C43.1758 173.782 43.4557 173.607 43.7002 173.354C43.9817 173.063 44.1494 172.728 44.2032 172.35C44.2418 171.972 44.1746 171.581 44.0016 171.176C43.8135 170.772 43.5277 170.385 43.144 170.015C42.6069 169.496 42.0199 169.144 41.383 168.959C40.7461 168.774 40.0671 168.771 39.3461 168.949C38.6173 169.12 37.858 169.485 37.0681 170.041L36.6121 169.201C37.4989 168.574 38.3707 168.171 39.2275 167.99C40.0843 167.809 40.9032 167.836 41.6843 168.071C42.4654 168.307 43.1859 168.743 43.8458 169.38Z" fill="#F68B1D"/>
<path d="M35.5144 160.191C35.9609 160.763 36.2658 161.344 36.4289 161.934C36.5836 162.53 36.5947 163.09 36.462 163.613C36.3228 164.128 36.0305 164.56 35.585 164.908C35.2067 165.203 34.7964 165.388 34.3541 165.463C33.9034 165.545 33.3822 165.519 32.7907 165.385C32.1841 165.25 31.4698 165.003 30.6476 164.643C29.9397 164.344 29.3657 164.129 28.9258 163.999C28.4708 163.867 28.0974 163.814 27.8056 163.838C27.5053 163.87 27.2418 163.974 27.0148 164.152C26.687 164.408 26.5109 164.728 26.4865 165.113C26.4555 165.489 26.6009 165.883 26.9227 166.295C27.2707 166.74 27.6534 166.996 28.0708 167.063C28.4798 167.136 28.8608 167.034 29.2138 166.758C29.3904 166.621 29.5388 166.464 29.6591 166.289C29.7728 166.105 29.8672 165.862 29.9423 165.56C30.0109 165.249 30.0839 164.84 30.1614 164.333L31.3204 155.915L32.3168 155.969L31.1137 164.746C31.0326 165.283 30.9475 165.729 30.8584 166.083C30.7544 166.435 30.6236 166.726 30.466 166.958C30.3084 167.189 30.1119 167.397 29.8766 167.581C29.4983 167.876 29.1016 168.044 28.6863 168.084C28.256 168.123 27.8339 168.033 27.4199 167.815C26.9975 167.603 26.609 167.271 26.2544 166.817C25.9326 166.405 25.725 165.992 25.6315 165.578C25.523 165.162 25.5333 164.768 25.6626 164.396C25.7852 164.016 26.0315 163.681 26.4013 163.392C26.7207 163.143 27.0815 162.99 27.4837 162.933C27.8792 162.867 28.3494 162.906 28.8942 163.049C29.4306 163.198 30.0991 163.448 30.8998 163.797C31.6077 164.096 32.205 164.306 32.6917 164.427C33.1719 164.539 33.5789 164.566 33.9128 164.509C34.2382 164.457 34.5397 164.323 34.817 164.107C35.1364 163.857 35.3491 163.549 35.4549 163.182C35.5458 162.813 35.5337 162.416 35.4186 161.992C35.2886 161.566 35.0594 161.142 34.7311 160.722C34.2714 160.134 33.7391 159.704 33.1341 159.432C32.5292 159.16 31.8572 159.062 31.1183 159.139C30.3729 159.207 29.5703 159.461 28.7105 159.903L28.376 159.007C29.3413 158.51 30.2608 158.232 31.1345 158.172C32.0081 158.112 32.8153 158.253 33.5561 158.594C34.2968 158.936 34.9496 159.468 35.5144 160.191Z" fill="#F68B1D"/>
<path d="M28.543 149.933C28.9057 150.561 29.1268 151.178 29.2062 151.785C29.2764 152.397 29.2094 152.953 29.0052 153.453C28.7957 153.944 28.4462 154.33 27.9566 154.613C27.5409 154.853 27.1088 154.979 26.6604 154.992C26.2027 155.01 25.6902 154.911 25.123 154.697C24.5412 154.479 23.8682 154.134 23.104 153.664C22.4447 153.269 21.9063 152.976 21.4887 152.786C21.0565 152.592 20.6942 152.487 20.4017 152.471C20.1 152.461 19.8244 152.527 19.575 152.671C19.2148 152.879 18.9958 153.172 18.9181 153.55C18.835 153.918 18.9242 154.328 19.1855 154.781C19.4682 155.27 19.8116 155.577 20.2156 155.701C20.6105 155.83 21.0019 155.783 21.3899 155.559C21.5839 155.447 21.7526 155.313 21.8961 155.156C22.0343 154.99 22.1616 154.762 22.2781 154.473C22.3892 154.175 22.5185 153.78 22.6658 153.289L24.9851 145.114L25.9643 145.306L23.5513 153.831C23.3962 154.351 23.2499 154.781 23.1125 155.119C22.9605 155.453 22.7904 155.723 22.6021 155.931C22.4138 156.138 22.1904 156.316 21.9317 156.465C21.516 156.705 21.0998 156.816 20.6829 156.798C20.2515 156.777 19.846 156.629 19.4664 156.355C19.0776 156.087 18.7391 155.704 18.4511 155.205C18.1898 154.752 18.0416 154.314 18.0067 153.891C17.9572 153.464 18.0222 153.075 18.2019 152.725C18.3763 152.366 18.6667 152.069 19.0732 151.834C19.4242 151.632 19.8028 151.53 20.209 151.53C20.6098 151.52 21.07 151.624 21.5896 151.841C22.1 152.064 22.7273 152.403 23.4716 152.861C24.1309 153.256 24.6932 153.547 25.1584 153.734C25.6183 153.912 26.0176 153.996 26.3562 153.985C26.6856 153.979 27.0028 153.889 27.3076 153.713C27.6586 153.51 27.9121 153.234 28.068 152.886C28.2093 152.533 28.2525 152.139 28.1977 151.702C28.1282 151.262 27.9602 150.811 27.6935 150.349C27.3202 149.702 26.8529 149.202 26.2917 148.849C25.7304 148.496 25.0787 148.305 24.3363 148.278C23.5886 148.242 22.7584 148.383 21.8456 148.7L21.639 147.766C22.6641 147.409 23.6134 147.261 24.4868 147.323C25.3603 147.385 26.1401 147.637 26.8261 148.079C27.512 148.52 28.0844 149.138 28.543 149.933Z" fill="#F68B1D"/>
<path d="M23.0673 138.803C23.339 139.476 23.4719 140.118 23.4661 140.73C23.4504 141.346 23.3067 141.888 23.035 142.354C22.7593 142.81 22.3593 143.145 21.8352 143.356C21.3901 143.536 20.9447 143.601 20.4988 143.551C20.0431 143.505 19.5493 143.337 19.0174 143.045C18.4717 142.748 17.8532 142.313 17.1619 141.741C16.564 141.258 16.0715 140.893 15.6844 140.647C15.2834 140.395 14.9392 140.241 14.6518 140.184C14.3545 140.132 14.0724 140.16 13.8053 140.267C13.4196 140.423 13.162 140.683 13.0326 141.046C12.8991 141.399 12.9303 141.817 13.1261 142.302C13.3378 142.826 13.6352 143.178 14.0181 143.357C14.3911 143.54 14.7853 143.547 15.2007 143.379C15.4084 143.295 15.5942 143.186 15.7581 143.051C15.918 142.905 16.0758 142.698 16.2313 142.428C16.3829 142.148 16.5658 141.775 16.7801 141.309L20.2145 133.536L21.1575 133.863L17.5816 141.969C17.3555 142.463 17.1509 142.868 16.9678 143.183C16.7708 143.493 16.5647 143.737 16.3494 143.916C16.1341 144.095 15.888 144.241 15.6111 144.352C15.166 144.532 14.7384 144.584 14.3281 144.508C13.9039 144.427 13.5229 144.224 13.1851 143.9C12.8373 143.581 12.5556 143.154 12.3398 142.62C12.144 142.135 12.0582 141.681 12.0825 141.257C12.0929 140.827 12.2115 140.451 12.4381 140.13C12.6608 139.798 12.9897 139.544 13.4249 139.369C13.8007 139.217 14.1898 139.169 14.592 139.225C14.9903 139.271 15.4316 139.438 15.9159 139.725C16.3904 140.017 16.9643 140.441 17.6377 140.997C18.2356 141.48 18.7518 141.847 19.1865 142.097C19.6171 142.337 20.0009 142.475 20.3377 142.512C20.6647 142.552 20.9914 142.507 21.3177 142.375C21.6936 142.223 21.9829 141.985 22.1858 141.662C22.3748 141.332 22.4725 140.948 22.4789 140.508C22.4714 140.062 22.3678 139.592 22.168 139.098C21.8883 138.405 21.4952 137.845 20.9886 137.417C20.482 136.989 19.8631 136.71 19.1317 136.58C18.3963 136.44 17.5546 136.463 16.6065 136.651L16.5319 135.697C17.5968 135.486 18.5574 135.471 19.4137 135.655C20.27 135.838 21.0071 136.196 21.625 136.728C22.2429 137.261 22.7236 137.953 23.0673 138.803Z" fill="#F68B1D"/>
<path d="M19.1936 127.02C19.3691 127.724 19.4114 128.379 19.3204 128.984C19.2192 129.592 19.0015 130.108 18.6675 130.532C18.3309 130.946 17.8884 131.221 17.3398 131.358C16.8741 131.474 16.4239 131.476 15.9894 131.365C15.5445 131.256 15.079 131.02 14.5928 130.657C14.0938 130.287 13.5418 129.771 12.9368 129.108C12.412 128.546 11.9751 128.117 11.626 127.819C11.264 127.513 10.9446 127.313 10.6679 127.217C10.3808 127.123 10.0975 127.112 9.81805 127.181C9.41441 127.282 9.12323 127.503 8.94451 127.844C8.7632 128.175 8.73577 128.594 8.86222 129.102C8.99898 129.65 9.24451 130.04 9.59879 130.27C9.94272 130.503 10.332 130.565 10.7667 130.457C10.9841 130.403 11.1833 130.32 11.3645 130.209C11.5431 130.088 11.7282 129.904 11.9198 129.658C12.1088 129.402 12.3418 129.059 12.6189 128.627L17.1017 121.408L17.99 121.862L13.3208 129.392C13.0282 129.849 12.7692 130.222 12.544 130.509C12.3058 130.788 12.0677 131.001 11.8296 131.149C11.5915 131.296 11.3275 131.406 11.0377 131.478C10.572 131.594 10.1412 131.586 9.7455 131.454C9.33684 131.314 8.98774 131.06 8.69823 130.693C8.39836 130.328 8.17875 129.866 8.03941 129.307C7.91296 128.8 7.89126 128.338 7.97431 127.921C8.04443 127.497 8.21411 127.141 8.48334 126.855C8.75 126.557 9.11102 126.352 9.56641 126.238C9.95971 126.14 10.3516 126.147 10.7422 126.258C11.1302 126.359 11.544 126.586 11.9836 126.938C12.4128 127.293 12.9221 127.793 13.5116 128.437C14.0364 128.999 14.4966 129.434 14.8922 129.742C15.2853 130.04 15.646 130.23 15.9745 130.313C16.2927 130.399 16.6225 130.399 16.9641 130.314C17.3574 130.216 17.677 130.02 17.923 129.728C18.156 129.428 18.3063 129.061 18.3738 128.626C18.4284 128.184 18.3912 127.704 18.2622 127.187C18.0815 126.462 17.7702 125.853 17.3281 125.358C16.886 124.864 16.3119 124.501 15.6058 124.271C14.8971 124.03 14.0603 123.936 13.0953 123.99L13.1541 123.035C14.2381 122.974 15.1913 123.093 16.0138 123.394C16.8363 123.695 17.5164 124.152 18.0542 124.765C18.5919 125.379 18.9717 126.13 19.1936 127.02Z" fill="#F68B1D"/>
<path d="M16.9976 114.813C17.0734 115.534 17.0241 116.188 16.8499 116.775C16.665 117.363 16.3776 117.844 15.9879 118.217C15.597 118.58 15.1204 118.791 14.5582 118.85C14.0808 118.9 13.6347 118.84 13.2199 118.669C12.7945 118.499 12.3663 118.201 11.9354 117.774C11.4927 117.338 11.0179 116.75 10.5111 116.01C10.0696 115.38 9.69669 114.894 9.39246 114.551C9.0765 114.198 8.78817 113.954 8.52746 113.821C8.25613 113.689 7.97726 113.637 7.69084 113.668C7.27712 113.711 6.95801 113.889 6.73352 114.203C6.50791 114.505 6.42242 114.916 6.47706 115.436C6.53615 115.998 6.72507 116.418 7.04383 116.696C7.35198 116.974 7.72883 117.09 8.17437 117.044C8.39714 117.02 8.60596 116.966 8.80083 116.881C8.99458 116.786 9.20342 116.63 9.42734 116.413C9.65014 116.186 9.92879 115.878 10.2633 115.489L15.7071 108.964L16.5235 109.538L10.8519 116.344C10.4984 116.756 10.1902 117.089 9.92717 117.342C9.65244 117.585 9.38693 117.763 9.13064 117.876C8.87435 117.989 8.5977 118.061 8.30067 118.092C7.8233 118.142 7.39787 118.074 7.02438 117.888C6.63917 117.693 6.32879 117.393 6.09325 116.989C5.84709 116.586 5.69391 116.098 5.6337 115.525C5.57907 115.005 5.62185 114.545 5.76205 114.144C5.89053 113.733 6.10805 113.405 6.4146 113.158C6.72004 112.901 7.10614 112.748 7.57291 112.699C7.97602 112.656 8.3632 112.717 8.73446 112.882C9.1046 113.036 9.48282 113.318 9.86911 113.728C10.2448 114.139 10.6796 114.705 11.1736 115.425C11.6152 116.054 12.0104 116.549 12.3593 116.909C12.707 117.259 13.0378 117.498 13.3516 117.626C13.6547 117.755 13.9813 117.801 14.3314 117.764C14.7345 117.721 15.0782 117.573 15.3624 117.318C15.6349 117.053 15.8348 116.71 15.9622 116.289C16.0778 115.859 16.1078 115.378 16.052 114.848C15.974 114.105 15.7505 113.459 15.3815 112.907C15.0126 112.356 14.4945 111.917 13.8274 111.591C13.1591 111.253 12.3434 111.044 11.3804 110.963L11.5714 110.026C12.6535 110.116 13.5808 110.367 14.3534 110.779C15.1261 111.191 15.736 111.739 16.1831 112.421C16.6302 113.103 16.9017 113.901 16.9976 114.813Z" fill="#F68B1D"/>
<path d="M16.5219 102.419C16.4966 103.144 16.3568 103.785 16.1026 104.341C15.8377 104.898 15.4862 105.334 15.0483 105.649C14.6107 105.954 14.1094 106.097 13.5444 106.077C13.0647 106.06 12.6314 105.938 12.2444 105.712C11.8468 105.484 11.4643 105.129 11.0969 104.647C10.7192 104.153 10.3309 103.505 9.93207 102.701C9.58241 102.016 9.28085 101.483 9.02738 101.1C8.76361 100.707 8.51193 100.426 8.27233 100.258C8.02207 100.089 7.75303 99.9993 7.4652 99.9892C7.04946 99.9747 6.70864 100.107 6.44274 100.386C6.17722 100.654 6.03534 101.049 6.0171 101.572C5.99737 102.137 6.12602 102.579 6.40305 102.898C6.66941 103.217 7.02646 103.384 7.47419 103.4C7.69805 103.407 7.91237 103.383 8.11715 103.326C8.3223 103.258 8.55081 103.133 8.8027 102.95C9.05496 102.756 9.37378 102.489 9.75917 102.151L16.0581 96.447L16.7867 97.1288L10.223 103.079C9.81558 103.439 9.46404 103.725 9.16839 103.939C8.86246 104.142 8.57476 104.281 8.30528 104.357C8.03579 104.433 7.75181 104.466 7.45332 104.456C6.97362 104.439 6.56178 104.312 6.21781 104.076C5.86356 103.829 5.59793 103.489 5.42094 103.056C5.23329 102.622 5.14951 102.118 5.16961 101.542C5.18785 101.02 5.29429 100.57 5.48891 100.192C5.67325 99.8039 5.93437 99.5089 6.27228 99.3072C6.61056 99.0949 7.01423 98.9969 7.48328 99.0133C7.88836 99.0274 8.26326 99.1419 8.60797 99.3567C8.95306 99.5609 9.28835 99.8928 9.61384 100.352C9.92867 100.812 10.2806 101.432 10.6695 102.214C11.0192 102.899 11.3417 103.444 11.637 103.849C11.9328 104.244 12.2271 104.526 12.52 104.697C12.8022 104.866 13.1193 104.958 13.471 104.97C13.8761 104.984 14.2372 104.885 14.5541 104.671C14.8608 104.447 15.1065 104.136 15.2912 103.737C15.4656 103.326 15.5621 102.855 15.5807 102.322C15.6068 101.576 15.4755 100.904 15.1868 100.307C14.8982 99.7098 14.4462 99.2031 13.8311 98.7867C13.2162 98.3596 12.4376 98.0389 11.4952 97.8246L11.8149 96.9232C12.8738 97.1629 13.7572 97.5407 14.4649 98.0563C15.1727 98.572 15.7005 99.1988 16.0483 99.9368C16.3961 100.675 16.5539 101.502 16.5219 102.419Z" fill="#F68B1D"/>
<path d="M17.7757 90.079C17.6497 90.7934 17.4221 91.4085 17.0928 91.9245C16.7531 92.4387 16.3444 92.8215 15.8668 93.0731C15.391 93.3141 14.8748 93.3855 14.318 93.2874C13.8453 93.204 13.4332 93.023 13.0815 92.7444C12.7194 92.4639 12.39 92.0592 12.0933 91.5304C11.788 90.9891 11.4938 90.2928 11.2107 89.4414C10.9597 88.7147 10.7353 88.1444 10.5375 87.7305C10.3311 87.3041 10.121 86.9909 9.90714 86.7907C9.68282 86.5887 9.42884 86.4627 9.14522 86.4127C8.73554 86.3404 8.37963 86.4239 8.07751 86.6631C7.77724 86.8917 7.58173 87.2634 7.49097 87.7782C7.3928 88.3349 7.45867 88.7906 7.68858 89.1453C7.90798 89.498 8.23828 89.7133 8.67948 89.7911C8.90007 89.83 9.11572 89.8356 9.32642 89.8077C9.53898 89.7694 9.78273 89.677 10.0577 89.5305C10.3345 89.3735 10.6873 89.1541 11.1161 88.8723L18.1474 84.1008L18.7741 84.8774L11.4461 89.8566C10.9927 90.1557 10.6046 90.3905 10.2821 90.5611C9.95094 90.7194 9.64664 90.8173 9.36921 90.8551C9.09177 90.8928 8.80599 90.8857 8.51186 90.8339C8.03915 90.7505 7.64892 90.568 7.34117 90.2863C7.02476 89.9922 6.80906 89.6184 6.69407 89.1649C6.56857 88.7095 6.55583 88.1982 6.65585 87.6309C6.74661 87.1162 6.91462 86.6855 7.15988 86.3388C7.39649 85.9798 7.69614 85.7239 8.05882 85.5712C8.42336 85.4081 8.83674 85.3672 9.29894 85.4487C9.69811 85.5191 10.0534 85.6847 10.3649 85.9454C10.6782 86.1956 10.964 86.5709 11.2224 87.0714C11.4702 87.57 11.7323 88.2336 12.0086 89.0622C12.2596 89.7888 12.5031 90.3733 12.7392 90.8157C12.9772 91.2475 13.2293 91.5682 13.4957 91.7776C13.7515 91.9852 14.0528 92.1196 14.3994 92.1807C14.7986 92.2511 15.17 92.2028 15.5135 92.0359C15.8484 91.8567 16.135 91.5823 16.3735 91.2128C16.6033 90.8309 16.7645 90.3773 16.8571 89.8521C16.9868 89.1168 16.9502 88.4334 16.7475 87.8019C16.5447 87.1704 16.1677 86.6057 15.6165 86.1078C15.0671 85.5993 14.3407 85.1734 13.4373 84.8299L13.8793 83.9818C14.8945 84.3666 15.7167 84.8636 16.3458 85.4728C16.9749 86.0819 17.4103 86.7761 17.6521 87.5552C17.8938 88.3344 17.935 89.1756 17.7757 90.079Z" fill="#F68B1D"/>
<path d="M20.7346 78.0339C20.5104 78.7237 20.1994 79.3012 19.8015 79.7663C19.3935 80.2282 18.9355 80.5504 18.4276 80.7331C17.9229 80.9056 17.4017 80.9045 16.8641 80.7298C16.4075 80.5814 16.0246 80.3448 15.7152 80.02C15.3956 79.6918 15.1257 79.2453 14.9055 78.6802C14.6785 78.1018 14.4841 77.3713 14.3222 76.4887C14.1748 75.7342 14.032 75.1383 13.8937 74.7008C13.7486 74.2499 13.5841 73.9105 13.4003 73.6825C13.2062 73.4512 12.9723 73.2911 12.6984 73.2021C12.3027 73.0735 11.9387 73.1066 11.6062 73.3014C11.277 73.4861 11.0317 73.8269 10.8702 74.324C10.6955 74.8617 10.6973 75.3221 10.8756 75.7053C11.0438 76.0852 11.3409 76.3444 11.767 76.4828C11.98 76.552 12.1928 76.5875 12.4053 76.5893C12.6211 76.5809 12.8754 76.5233 13.168 76.4165C13.464 76.2996 13.8439 76.1314 14.3077 75.912L21.9347 72.1655L22.4472 73.0218L14.4976 76.9326C14.0069 77.1657 13.59 77.3443 13.2468 77.4684C12.8969 77.579 12.5819 77.6336 12.3019 77.6324C12.0219 77.6311 11.7399 77.5844 11.4559 77.4921C10.9994 77.3437 10.6383 77.1087 10.3728 76.7869C10.1004 76.4516 9.93879 76.0514 9.88804 75.5863C9.82714 75.1179 9.88568 74.6098 10.0637 74.062C10.2252 73.5649 10.4515 73.1618 10.7426 72.8526C11.0269 72.53 11.3592 72.3183 11.7396 72.2176C12.1233 72.1068 12.5384 72.1239 12.9847 72.2689C13.3702 72.3941 13.6991 72.6075 13.9712 72.909C14.2466 73.2004 14.4775 73.6119 14.6636 74.1434C14.8397 74.6717 15.0069 75.3653 15.1652 76.2243C15.3126 76.9787 15.4724 77.5914 15.6446 78.0624C15.8202 78.5232 16.0252 78.8758 16.2598 79.1203C16.4843 79.3614 16.7639 79.5364 17.0987 79.6452C17.4842 79.7704 17.8586 79.7743 18.2221 79.6569C18.5786 79.526 18.9007 79.2942 19.1883 78.9614C19.469 78.6152 19.6917 78.1885 19.8565 77.6813C20.0873 76.9712 20.1462 76.2893 20.0333 75.6358C19.9204 74.9822 19.6256 74.3706 19.1491 73.8007C18.6758 73.2208 18.0157 72.6979 17.1689 72.2321L17.7246 71.4537C18.6765 71.9761 19.4215 72.5826 19.9597 73.2734C20.4979 73.9642 20.8325 74.7122 20.9634 75.5174C21.0943 76.3226 21.018 77.1614 20.7346 78.0339Z" fill="#F68B1D"/>
<path d="M25.3412 66.5177C25.0232 67.1696 24.6348 67.6982 24.1761 68.1034C23.7078 68.504 23.2094 68.7594 22.6809 68.8695C22.1572 68.9701 21.6412 68.8965 21.1331 68.6487C20.7017 68.4383 20.3554 68.1507 20.0942 67.7859C19.8234 67.4165 19.6183 66.9367 19.4789 66.3465C19.3346 65.7421 19.2437 64.9916 19.2062 64.0951C19.1653 63.3275 19.1068 62.7174 19.0308 62.265C18.9498 61.7983 18.8342 61.4392 18.6838 61.1879C18.5239 60.9319 18.3145 60.7407 18.0556 60.6145C17.6817 60.4321 17.3166 60.4142 16.9603 60.5609C16.6086 60.6979 16.3182 61.0013 16.0891 61.4711C15.8412 61.9792 15.779 62.4354 15.9022 62.8397C16.0159 63.2393 16.274 63.5373 16.6767 63.7337C16.878 63.8319 17.0838 63.8966 17.294 63.9279C17.5089 63.9497 17.7687 63.928 18.0733 63.863C18.3827 63.7884 18.7823 63.6747 19.2721 63.522L27.3464 60.8735L27.7347 61.7927L19.3182 64.5592C18.7998 64.7217 18.3621 64.8405 18.005 64.9156C17.643 64.9764 17.3235 64.9867 17.0464 64.9465C16.7694 64.9063 16.4966 64.8207 16.2282 64.6898C15.7967 64.4794 15.4719 64.1964 15.2537 63.8407C15.0307 63.4708 14.9263 63.0521 14.9408 62.5844C14.9457 62.1121 15.0744 61.6171 15.3269 61.0994C15.556 60.6296 15.8362 60.2619 16.1676 59.9962C16.494 59.7163 16.8525 59.553 17.2432 59.5062C17.6386 59.4498 18.0472 59.5245 18.4691 59.7302C18.8334 59.9079 19.1293 60.165 19.3568 60.5015C19.5891 60.8283 19.7604 61.2679 19.8708 61.8202C19.9716 62.3678 20.0406 63.0779 20.0778 63.9506C20.1188 64.7182 20.1918 65.3472 20.2968 65.8375C20.4065 66.3183 20.5605 66.696 20.7588 66.9708C20.9475 67.2408 21.2 67.453 21.5164 67.6073C21.8807 67.785 22.251 67.841 22.6272 67.7752C22.9985 67.6953 23.3497 67.5105 23.6808 67.221C24.007 66.9173 24.287 66.5257 24.5208 66.0463C24.8481 65.3752 25.0013 64.7082 24.9805 64.0453C24.9596 63.3825 24.7529 62.7357 24.3602 62.1051C23.9723 61.4649 23.3914 60.8552 22.6177 60.2761L23.2763 59.5826C24.1462 60.2324 24.7995 60.9368 25.2364 61.6957C25.6732 62.4547 25.9004 63.242 25.918 64.0576C25.9356 64.8732 25.7433 65.6932 25.3412 66.5177Z" fill="#F68B1D"/>
<path d="M31.5058 55.7547C31.1002 56.356 30.642 56.8254 30.1313 57.1628C29.6118 57.4943 29.0828 57.6779 28.5441 57.7134C28.0115 57.7401 27.5108 57.5954 27.0421 57.2793C26.6442 57.0109 26.3412 56.6779 26.1333 56.2803C25.9166 55.8768 25.7803 55.3731 25.7244 54.7693C25.6656 54.1507 25.68 53.3949 25.7677 52.5019C25.834 51.736 25.861 51.1237 25.8486 50.6651C25.8335 50.1917 25.7689 49.8201 25.655 49.5502C25.5322 49.2744 25.3515 49.056 25.1127 48.895C24.7678 48.6623 24.4087 48.5938 24.0355 48.6894C23.6681 48.7762 23.3383 49.0362 23.0461 49.4695C22.7299 49.9382 22.6048 50.3813 22.6706 50.7988C22.7275 51.2103 22.9417 51.5414 23.3131 51.7919C23.4988 51.9171 23.6935 52.0099 23.8973 52.0702C24.1071 52.1216 24.3674 52.1363 24.6781 52.1143C24.9949 52.0835 25.4064 52.0266 25.9127 51.9435L34.277 50.4445L34.5336 51.4088L25.814 52.977C25.278 53.0658 24.828 53.1225 24.464 53.1472C24.0971 53.157 23.7792 53.1228 23.5104 53.0444C23.2416 52.966 22.9834 52.8433 22.7358 52.6763C22.3379 52.4079 22.0556 52.0824 21.8891 51.6999C21.7196 51.3025 21.6746 50.8733 21.754 50.4122C21.8246 49.9452 22.021 49.4729 22.343 48.9953C22.6353 48.562 22.964 48.2369 23.329 48.02C23.6912 47.7882 24.069 47.6763 24.4625 47.6844C24.8619 47.6836 25.2561 47.8144 25.6452 48.0769C25.9812 48.3035 26.2385 48.5993 26.417 48.9641C26.6014 49.3201 26.7099 49.7793 26.7424 50.3416C26.766 50.8979 26.7355 51.6107 26.6509 52.48C26.5847 53.2459 26.5694 53.8789 26.6051 54.3791C26.6469 54.8704 26.7468 55.2659 26.9049 55.5656C27.0542 55.8593 27.2748 56.1045 27.5666 56.3014C27.9026 56.528 28.2615 56.635 28.6432 56.6223C29.022 56.5947 29.3955 56.4607 29.7637 56.2201C30.129 55.9647 30.4607 55.6159 30.7589 55.1737C31.1765 54.5547 31.421 53.9155 31.4927 53.2562C31.5643 52.5968 31.4495 51.9276 31.1485 51.2485C30.8534 50.5605 30.3631 49.876 29.6774 49.1948L30.4262 48.5997C31.1972 49.3642 31.7461 50.1527 32.0731 50.9651C32.4 51.7774 32.5154 52.5887 32.4194 53.3988C32.3233 54.2089 32.0187 54.9942 31.5058 55.7547Z" fill="#F68B1D"/>
<path d="M39.1081 45.9544C38.6228 46.4934 38.1038 46.8945 37.5511 47.1576C36.9905 47.4135 36.441 47.5216 35.9027 47.4819C35.3715 47.4342 34.8958 47.2212 34.4757 46.8429C34.119 46.5217 33.8654 46.1498 33.7148 45.7272C33.5563 45.2974 33.4914 44.7797 33.5201 44.174C33.548 43.5532 33.6675 42.8067 33.8786 41.9347C34.0508 41.1855 34.1627 40.5829 34.2144 40.127C34.2652 39.6561 34.253 39.2791 34.1778 38.996C34.0946 38.7058 33.946 38.4644 33.7319 38.2717C33.4228 37.9933 33.0767 37.8755 32.6938 37.9182C32.318 37.953 31.9552 38.1646 31.6055 38.5531C31.2272 38.9732 31.0416 39.3945 31.0486 39.8171C31.0477 40.2326 31.2137 40.5902 31.5467 40.89C31.7131 41.0398 31.8931 41.1588 32.0865 41.2469C32.2871 41.327 32.5428 41.3778 32.8536 41.3993C33.1715 41.4128 33.5869 41.4137 34.0999 41.4019L42.5914 41.0815L42.7113 42.0722L33.8583 42.4115C33.3152 42.4249 32.8617 42.4185 32.4977 42.3922C32.133 42.3509 31.8231 42.2727 31.5678 42.1577C31.3125 42.0427 31.0739 41.8853 30.852 41.6854C30.4952 41.3642 30.261 41.0027 30.1493 40.6007C30.0368 40.1836 30.052 39.7523 30.1948 39.3067C30.3297 38.854 30.5899 38.4137 30.9753 37.9856C31.325 37.5972 31.6957 37.321 32.0874 37.157C32.4783 36.9779 32.868 36.9197 33.2565 36.9824C33.6521 37.0372 34.0243 37.2216 34.3731 37.5357C34.6743 37.8069 34.8879 38.1356 35.0139 38.5217C35.147 38.8999 35.1905 39.3697 35.1444 39.931C35.0904 40.4852 34.961 41.1868 34.7562 42.0359C34.584 42.7851 34.4808 43.4099 34.4466 43.9102C34.4196 44.4025 34.4635 44.8081 34.5784 45.1268C34.6853 45.4384 34.8696 45.712 35.1312 45.9475C35.4324 46.2188 35.7729 46.3746 36.1527 46.4151C36.5316 46.4406 36.9202 46.3598 37.3182 46.1728C37.7155 45.9707 38.0925 45.6715 38.4494 45.2751C38.949 44.7203 39.2802 44.1213 39.4428 43.4784C39.6055 42.8354 39.5851 42.1567 39.3815 41.4423C39.185 40.72 38.7947 39.9739 38.2105 39.2039L39.0348 38.7188C39.6919 39.5832 40.1258 40.4403 40.3365 41.2903C40.5472 42.1403 40.5486 42.9597 40.3407 43.7485C40.1328 44.5374 39.7219 45.2727 39.1081 45.9544Z" fill="#F68B1D"/>
<path d="M48.0005 37.3075C47.4449 37.7737 46.8751 38.0986 46.2912 38.2823C45.7004 38.4577 45.1412 38.4883 44.6137 38.374C44.0943 38.2528 43.6529 37.9757 43.2895 37.5427C42.981 37.175 42.7816 36.7714 42.6913 36.3319C42.5942 35.8843 42.602 35.3626 42.7147 34.7667C42.8287 34.1558 43.0509 33.4333 43.3813 32.5991C43.6561 31.8811 43.8508 31.3 43.9654 30.8558C44.0813 30.3965 44.1217 30.0215 44.0865 29.7307C44.0446 29.4317 43.931 29.172 43.7459 28.9513C43.4785 28.6327 43.1522 28.4678 42.767 28.4568C42.39 28.439 42.0013 28.5981 41.6009 28.934C41.1679 29.2974 40.9254 29.6888 40.8736 30.1083C40.8149 30.5196 40.9295 30.8968 41.2175 31.24C41.3615 31.4116 41.5231 31.5545 41.7024 31.6686C41.8899 31.7758 42.136 31.8617 42.4408 31.9262C42.7537 31.9839 43.165 32.0426 43.6746 32.1023L52.128 32.9668L52.1089 33.9646L43.2948 33.0685C42.7551 33.0061 42.3069 32.9366 41.9502 32.86C41.5948 32.7683 41.2987 32.6478 41.062 32.4984C40.8252 32.3489 40.6108 32.1598 40.4188 31.931C40.1103 31.5633 39.9287 31.1727 39.874 30.759C39.8207 30.3304 39.8957 29.9054 40.0991 29.484C40.2957 29.0545 40.6146 28.6547 41.0558 28.2844C41.4562 27.9485 41.8618 27.7265 42.2725 27.6186C42.6845 27.4956 43.0785 27.4923 43.4545 27.6084C43.8387 27.7178 44.1816 27.9522 44.4832 28.3117C44.7438 28.6222 44.9096 28.9774 44.9806 29.3773C45.0598 29.7704 45.0375 30.2417 44.9137 30.7911C44.783 31.3324 44.5573 32.0092 44.2363 32.8215C43.9615 33.5395 43.7724 34.1438 43.6689 34.6344C43.5735 35.1182 43.5606 35.5259 43.63 35.8576C43.6926 36.181 43.837 36.4776 44.0632 36.7472C44.3238 37.0577 44.6393 37.2595 45.0097 37.3525C45.3814 37.4304 45.7774 37.4045 46.1976 37.2747C46.6191 37.1298 47.0342 36.886 47.4427 36.5432C48.0147 36.0632 48.426 35.5162 48.6766 34.9022C48.9271 34.2881 49.0013 33.6132 48.8991 32.8774C48.8051 32.1348 48.5224 31.3415 48.0511 30.4978L48.9349 30.1322C49.4653 31.0795 49.7757 31.9887 49.866 32.8598C49.9564 33.7308 49.8437 34.5424 49.5281 35.2947C49.2124 36.0469 48.7032 36.7178 48.0005 37.3075Z" fill="#F68B1D"/>
<path d="M58.0097 29.9823C57.3946 30.3667 56.7852 30.6091 56.1814 30.7097C55.5719 30.8012 55.014 30.7537 54.5074 30.5671C54.01 30.3748 53.6114 30.039 53.3119 29.5595C53.0575 29.1525 52.9162 28.7251 52.888 28.2773C52.8541 27.8205 52.9344 27.305 53.129 26.7306C53.3269 26.1416 53.6475 25.457 54.0908 24.6768C54.4628 24.0041 54.7365 23.4558 54.9118 23.0318C55.0905 22.5931 55.1827 22.2274 55.1883 21.9345C55.1884 21.6326 55.1121 21.3596 54.9595 21.1153C54.739 20.7625 54.4388 20.5539 54.0589 20.4894C53.6881 20.4193 53.281 20.5227 52.8378 20.7997C52.3584 21.0993 52.0638 21.4531 51.9541 21.8613C51.8387 22.2604 51.8997 22.6499 52.1371 23.0299C52.2558 23.2198 52.396 23.3838 52.5577 23.5217C52.7284 23.654 52.9602 23.7733 53.253 23.8797C53.5549 23.9803 53.954 24.0957 54.4504 24.2257L62.7012 26.2583L62.5434 27.2437L53.9398 25.1297C53.414 24.9928 52.9799 24.8616 52.6373 24.7361C52.2981 24.5958 52.0217 24.4353 51.808 24.2543C51.5943 24.0734 51.4084 23.8563 51.2501 23.603C50.9957 23.196 50.8703 22.7838 50.8737 22.3666C50.8805 21.9347 51.014 21.5243 51.2741 21.1353C51.5285 20.7374 51.9 20.3858 52.3884 20.0805C52.8317 19.8036 53.2642 19.6402 53.6859 19.5905C54.111 19.5261 54.5017 19.5776 54.8578 19.745C55.223 19.9067 55.53 20.1865 55.7787 20.5846C55.9935 20.9283 56.1082 21.3031 56.1229 21.709C56.1466 22.1093 56.0589 22.5729 55.8598 23.0997C55.6551 23.6176 55.3374 24.2564 54.9065 25.0161C54.5345 25.6888 54.2631 26.2609 54.0923 26.7324C53.9305 27.1982 53.861 27.6002 53.8836 27.9382C53.9005 28.2673 54.0022 28.581 54.1887 28.8795C54.4035 29.2233 54.6879 29.467 55.0418 29.6106C55.399 29.7395 55.7948 29.769 56.229 29.6989C56.6665 29.6141 57.1115 29.4304 57.5638 29.1478C58.197 28.7521 58.6804 28.2677 59.014 27.6945C59.3476 27.1213 59.515 26.4632 59.5162 25.7204C59.5264 24.9719 59.3569 24.1471 59.0076 23.2459L59.9336 23.0068C60.327 24.0188 60.5078 24.9624 60.4761 25.8375C60.4444 26.7126 60.2198 27.5007 59.8026 28.2017C59.3853 28.9026 58.7877 29.4962 58.0097 29.9823Z" fill="#F68B1D"/>
<path d="M68.941 24.1214C68.2784 24.4164 67.6411 24.5717 67.0292 24.5873C66.413 24.5931 65.867 24.4684 65.3914 24.2131C64.9255 23.9535 64.5776 23.5654 64.3477 23.049C64.1525 22.6105 64.072 22.1675 64.1064 21.7202C64.1364 21.2632 64.2877 20.7638 64.5603 20.2221C64.8383 19.6663 65.251 19.033 65.7986 18.3222C66.2606 17.7078 66.608 17.2029 66.8405 16.8074C67.0785 16.3979 67.2207 16.0485 67.2671 15.7593C67.3092 15.4603 67.2716 15.1793 67.1545 14.9162C66.9853 14.5362 66.7171 14.2878 66.3498 14.1711C65.9923 14.05 65.5749 14.0958 65.0974 14.3084C64.5809 14.5383 64.24 14.8477 64.0745 15.2367C63.9047 15.6158 63.911 16.01 64.0932 16.4193C64.1843 16.6239 64.3003 16.8058 64.4412 16.9649C64.5918 17.1197 64.8047 17.2701 65.0799 17.4161C65.3649 17.5578 65.744 17.7276 66.2174 17.9255L74.1051 21.0866L73.8117 22.0404L65.586 18.7496C65.0845 18.5409 64.6728 18.3505 64.351 18.1785C64.0346 17.9925 63.7832 17.795 63.5968 17.5861C63.4104 17.3772 63.2565 17.1363 63.135 16.8634C62.9397 16.4249 62.8729 15.9994 62.9343 15.5867C63.0012 15.1599 63.1905 14.7721 63.5022 14.4231C63.8095 14.0644 64.2263 13.768 64.7525 13.5337C65.23 13.3211 65.681 13.2195 66.1055 13.229C66.5355 13.2244 66.9152 13.3297 67.2445 13.545C67.5837 13.756 67.8487 14.0759 68.0396 14.5046C68.2044 14.8749 68.2659 15.2621 68.2239 15.6661C68.1917 16.0657 68.0404 16.5126 67.7699 17.0066C67.4951 17.4909 67.0916 18.0793 66.5592 18.7717C66.0971 19.3861 65.7487 19.9148 65.514 20.3579C65.289 20.7967 65.1642 21.1851 65.1395 21.523C65.1104 21.8512 65.1675 22.176 65.3107 22.4976C65.4756 22.8679 65.7232 23.1488 66.0537 23.3403C66.3895 23.5177 66.7773 23.6019 67.217 23.5929C67.6621 23.5699 68.1283 23.4499 68.6155 23.233C69.2976 22.9293 69.8438 22.5168 70.2539 21.9956C70.664 21.4744 70.9214 20.8461 71.0259 20.1106C71.1403 19.3708 71.0872 18.5304 70.8667 17.5894L71.817 17.4816C72.0657 18.5385 72.1134 19.498 71.9602 20.3602C71.807 21.2224 71.475 21.9715 70.9642 22.6076C70.4534 23.2437 69.779 23.7483 68.941 24.1214Z" fill="#F68B1D"/>
<path d="M80.5816 19.839C79.8844 20.0389 79.2317 20.104 78.6236 20.0342C78.0125 19.9542 77.4893 19.7547 77.0538 19.4357C76.6286 19.1138 76.3381 18.6811 76.1822 18.1377C76.0499 17.6763 76.0319 17.2265 76.1282 16.7883C76.2215 16.3399 76.4409 15.8664 76.7862 15.3679C77.1388 14.8562 77.6357 14.2865 78.2768 13.6588C78.8199 13.1147 79.2341 12.6631 79.5195 12.3038C79.8122 11.9314 80.0016 11.6052 80.0878 11.3253C80.171 11.0351 80.1729 10.7516 80.0936 10.4747C79.9789 10.0749 79.7479 9.79156 79.4005 9.62486C79.0633 9.45522 78.6435 9.44243 78.1411 9.5865C77.5977 9.74233 77.217 10.0013 76.999 10.3634C76.7781 10.7153 76.7294 11.1065 76.8529 11.5371C76.9146 11.7525 77.0042 11.9487 77.1215 12.1259C77.2492 12.3001 77.4391 12.4787 77.6913 12.6616C77.9537 12.8416 78.3056 13.0625 78.7468 13.3243L86.1178 17.5524L85.6945 18.4561L78.0069 14.0525C77.5392 13.776 77.1581 13.5302 76.8633 13.3151C76.576 13.0868 76.3545 12.8563 76.199 12.6235C76.0434 12.3907 75.9245 12.1307 75.8422 11.8436C75.7099 11.3822 75.7029 10.9514 75.8212 10.5513C75.9468 10.138 76.1882 9.7803 76.5454 9.47813C76.8997 9.16571 77.3537 8.93012 77.9074 8.77135C78.4098 8.62728 78.8705 8.58948 79.2896 8.65795C79.7161 8.71322 80.0774 8.87038 80.3736 9.12943C80.6801 9.38555 80.898 9.73918 81.0273 10.1903C81.1391 10.58 81.146 10.9719 81.0482 11.3661C80.9607 11.7574 80.7487 12.1788 80.4121 12.6304C80.0726 13.0718 79.591 13.5982 78.9675 14.2098C78.4244 14.7539 78.0058 15.229 77.7117 15.6352C77.4278 16.0384 77.2502 16.4056 77.1787 16.7368C77.1043 17.0577 77.1156 17.3874 77.2126 17.7257C77.3243 18.1154 77.5305 18.428 77.8311 18.6636C78.139 18.886 78.5113 19.0234 78.9479 19.0757C79.3919 19.1148 79.8702 19.0609 80.3829 18.9139C81.1007 18.7081 81.6989 18.3757 82.1775 17.9166C82.6562 17.4575 82.9985 16.8711 83.2044 16.1574C83.4206 15.4407 83.485 14.6011 83.3976 13.6386L84.3537 13.664C84.4529 14.7452 84.3666 15.7021 84.0949 16.5346C83.8232 17.3671 83.3901 18.0627 82.7958 18.6215C82.2015 19.1803 81.4634 19.5861 80.5816 19.839Z" fill="#F68B1D"/>
<path d="M92.7048 17.2182C91.9865 17.3191 91.3311 17.2927 90.7386 17.139C90.1446 16.9748 89.6542 16.7044 89.2674 16.3279C88.8912 15.9499 88.6637 15.481 88.585 14.9212C88.5182 14.4459 88.563 13.9979 88.7193 13.5774C88.8741 13.1463 89.1572 12.708 89.5685 12.2624C89.9889 11.8048 90.5603 11.3098 91.2826 10.7774C91.8961 10.3142 92.3691 9.92458 92.7017 9.60855C93.0434 9.28047 93.2763 8.98383 93.4006 8.71862C93.5234 8.44284 93.5648 8.16235 93.5247 7.87716C93.4668 7.4652 93.2775 7.15251 92.9567 6.93909C92.6464 6.72418 92.2325 6.65309 91.7149 6.72583C91.1551 6.80451 90.742 7.00798 90.4758 7.33622C90.2081 7.65391 90.1054 8.03457 90.1677 8.47821C90.1989 8.70003 90.2603 8.90684 90.3519 9.09862C90.454 9.28893 90.6172 9.49219 90.8415 9.70841C91.0763 9.92315 91.394 10.1909 91.7945 10.5116L98.5053 15.7244L97.9604 16.5603L90.9604 11.1297C90.5358 10.7908 90.1926 10.4944 89.9306 10.2404C89.6778 9.97428 89.4906 9.71515 89.369 9.46296C89.2474 9.21076 89.1658 8.93678 89.1242 8.64102C89.0574 8.16569 89.1104 7.73816 89.2833 7.35841C89.4652 6.96661 89.754 6.64596 90.1498 6.39644C90.5441 6.13637 91.0265 5.96625 91.5969 5.88609C92.1144 5.81334 92.576 5.84004 92.9815 5.96616C93.3961 6.08024 93.732 6.28616 93.9893 6.58392C94.2571 6.88019 94.4237 7.26071 94.489 7.72548C94.5454 8.12687 94.4978 8.51595 94.3461 8.89273C94.2049 9.26803 93.9363 9.65586 93.5402 10.0562C93.1425 10.446 92.5924 10.9003 91.8898 11.4192C91.2763 11.8824 90.7956 12.2946 90.4479 12.6559C90.1106 13.0156 89.8836 13.3545 89.7667 13.6726C89.6484 13.98 89.6137 14.3081 89.6627 14.6566C89.7191 15.058 89.8797 15.3963 90.1446 15.6714C90.4185 15.9345 90.7681 16.1224 91.1932 16.235C91.6274 16.3355 92.1086 16.3487 92.6368 16.2745C93.3762 16.1705 94.0148 15.9246 94.5527 15.5366C95.0906 15.1487 95.5112 14.6156 95.8144 13.9375C96.1283 13.2578 96.3089 12.4354 96.3563 11.47L97.2995 11.6283C97.2473 12.7128 97.0287 13.6483 96.6437 14.4349C96.2588 15.2215 95.7332 15.8501 95.0669 16.3207C94.4005 16.7914 93.6132 17.0905 92.7048 17.2182Z" fill="#F68B1D"/>
<path d="M105.075 16.3102C104.349 16.3102 103.704 16.1928 103.139 15.9582C102.573 15.7128 102.125 15.3768 101.795 14.9502C101.475 14.5235 101.315 14.0275 101.315 13.4622C101.315 12.9822 101.421 12.5448 101.635 12.1502C101.848 11.7448 102.189 11.3502 102.659 10.9662C103.139 10.5715 103.773 10.1608 104.563 9.73417C105.235 9.36084 105.757 9.04084 106.131 8.77417C106.515 8.49684 106.787 8.23551 106.947 7.99017C107.107 7.73417 107.187 7.46217 107.187 7.17417C107.187 6.75817 107.043 6.42217 106.755 6.16617C106.477 5.91017 106.077 5.78217 105.555 5.78217C104.989 5.78217 104.552 5.92617 104.243 6.21417C103.933 6.49151 103.779 6.85417 103.779 7.30217C103.779 7.52617 103.811 7.73951 103.875 7.94217C103.949 8.14484 104.083 8.36884 104.275 8.61417C104.477 8.85951 104.755 9.16884 105.107 9.54217L111.027 15.6382L110.371 16.3902L104.195 10.0382C103.821 9.64351 103.523 9.30217 103.299 9.01417C103.085 8.71551 102.936 8.43284 102.851 8.16617C102.765 7.89951 102.723 7.61684 102.723 7.31817C102.723 6.83817 102.835 6.42217 103.059 6.07017C103.293 5.70751 103.624 5.43017 104.051 5.23817C104.477 5.0355 104.979 4.93417 105.555 4.93417C106.077 4.93417 106.531 5.02484 106.915 5.20617C107.309 5.37684 107.613 5.6275 107.827 5.95817C108.051 6.28884 108.163 6.68884 108.163 7.15817C108.163 7.56351 108.061 7.94217 107.859 8.29417C107.667 8.64617 107.347 8.99284 106.899 9.33417C106.451 9.66484 105.843 10.0382 105.075 10.4542C104.403 10.8275 103.869 11.1688 103.475 11.4782C103.091 11.7875 102.819 12.0915 102.659 12.3902C102.499 12.6782 102.419 12.9982 102.419 13.3502C102.419 13.7555 102.531 14.1128 102.755 14.4222C102.989 14.7208 103.309 14.9555 103.715 15.1262C104.131 15.2862 104.605 15.3662 105.139 15.3662C105.885 15.3662 106.552 15.2115 107.139 14.9022C107.725 14.5928 108.216 14.1235 108.611 13.4942C109.016 12.8648 109.309 12.0755 109.491 11.1262L110.403 11.4142C110.2 12.4808 109.853 13.3768 109.363 14.1022C108.872 14.8275 108.264 15.3768 107.539 15.7502C106.813 16.1235 105.992 16.3102 105.075 16.3102Z" fill="#F68B1D"/>
<path d="M117.451 17.1326C116.733 17.0316 116.11 16.8256 115.583 16.5146C115.057 16.1929 114.66 15.7979 114.392 15.3293C114.135 14.8623 114.045 14.3488 114.124 13.789C114.191 13.3137 114.357 12.8954 114.623 12.5343C114.891 12.1626 115.284 11.8193 115.802 11.5043C116.332 11.1803 117.018 10.862 117.859 10.5493C118.576 10.2731 119.139 10.029 119.545 9.81688C119.964 9.59569 120.27 9.37476 120.463 9.15408C120.657 8.92284 120.774 8.66462 120.814 8.37942C120.872 7.96747 120.776 7.6147 120.526 7.32111C120.287 7.029 119.909 6.84658 119.391 6.77384C118.832 6.69516 118.378 6.77689 118.032 7.01904C117.687 7.25062 117.483 7.58823 117.421 8.03187C117.39 8.25369 117.392 8.4694 117.427 8.67901C117.473 8.89009 117.574 9.13047 117.73 9.40014C117.896 9.67129 118.128 10.0162 118.424 10.4349L123.438 17.2955L122.684 17.9489L117.452 10.7991C117.138 10.3564 116.889 9.97678 116.708 9.66041C116.538 9.33496 116.429 9.03426 116.382 8.75831C116.335 8.48237 116.332 8.19651 116.373 7.90075C116.44 7.42542 116.609 7.02906 116.88 6.71166C117.162 6.38518 117.528 6.15657 117.978 6.02582C118.428 5.8845 118.939 5.85393 119.509 5.93409C120.027 6.00683 120.463 6.15971 120.818 6.39272C121.185 6.61665 121.452 6.90719 121.617 7.26433C121.793 7.62295 121.848 8.03464 121.782 8.49941C121.726 8.9008 121.573 9.26168 121.323 9.58205C121.084 9.9039 120.719 10.2027 120.228 10.4783C119.738 10.7434 119.084 11.0285 118.266 11.3336C117.548 11.6097 116.973 11.8735 116.539 12.1249C116.116 12.3778 115.804 12.641 115.604 12.9145C115.405 13.1774 115.282 13.4832 115.233 13.8317C115.176 14.2331 115.237 14.6026 115.416 14.9401C115.607 15.2685 115.891 15.5454 116.269 15.7708C116.659 15.9872 117.117 16.1324 117.646 16.2067C118.385 16.3106 119.067 16.2502 119.691 16.0255C120.315 15.8009 120.866 15.4044 121.344 14.8361C121.833 14.2693 122.234 13.5285 122.545 12.6136L123.408 13.0257C123.059 14.0538 122.591 14.8929 122.004 15.5428C121.418 16.1928 120.739 16.6522 119.969 16.921C119.199 17.1897 118.359 17.2602 117.451 17.1326Z" fill="#F68B1D"/>
<path d="M129.592 19.6694C128.895 19.4695 128.307 19.1788 127.828 18.7974C127.352 18.4057 127.014 17.9593 126.814 17.458C126.624 16.9596 126.607 16.4387 126.763 15.8953C126.895 15.4339 127.118 15.0429 127.432 14.7223C127.749 14.3915 128.186 14.1062 128.743 13.8665C129.313 13.6194 130.036 13.3996 130.912 13.207C131.661 13.0334 132.252 12.8698 132.684 12.7164C133.13 12.5556 133.463 12.3794 133.685 12.1877C133.909 11.9857 134.061 11.7463 134.14 11.4694C134.255 11.0696 134.209 10.7069 134.003 10.3814C133.807 10.0589 133.458 9.82559 132.955 9.68153C132.412 9.5257 131.952 9.54357 131.575 9.73515C131.201 9.91648 130.953 10.2225 130.829 10.6531C130.767 10.8684 130.739 11.0823 130.745 11.2948C130.761 11.5102 130.827 11.7623 130.944 12.051C131.072 12.3427 131.253 12.7165 131.488 13.1724L135.499 20.664L134.661 21.2061L130.475 13.3978C130.225 12.9155 130.032 12.5051 129.896 12.1665C129.773 11.8206 129.708 11.5077 129.699 11.2278C129.69 10.948 129.727 10.6645 129.81 10.3774C129.942 9.91601 130.164 9.547 130.477 9.27038C130.802 8.98644 131.197 8.811 131.66 8.74404C132.126 8.66683 132.635 8.70761 133.189 8.86637C133.692 9.01044 134.102 9.22255 134.421 9.50271C134.754 9.77555 134.977 10.1003 135.091 10.477C135.215 10.8566 135.212 11.2719 135.083 11.7231C134.971 12.1127 134.77 12.4488 134.478 12.7313C134.196 13.0167 133.793 13.2618 133.268 13.4664C132.746 13.6608 132.059 13.852 131.206 14.0402C130.457 14.2139 129.851 14.395 129.386 14.5835C128.932 14.7751 128.586 14.9923 128.35 15.2353C128.117 15.468 127.952 15.7536 127.855 16.092C127.743 16.4816 127.752 16.8559 127.882 17.215C128.026 17.5668 128.269 17.8806 128.611 18.1564C128.967 18.4248 129.401 18.6326 129.914 18.7796C130.632 18.9854 131.315 19.0205 131.964 18.8848C132.613 18.7492 133.214 18.4333 133.767 17.9371C134.33 17.4439 134.83 16.766 135.266 15.9034L136.063 16.4316C135.574 17.4011 134.994 18.1669 134.323 18.7289C133.651 19.2908 132.915 19.6513 132.115 19.8102C131.315 19.9692 130.474 19.9222 129.592 19.6694Z" fill="#F68B1D"/>
<path d="M141.262 23.8712C140.599 23.5762 140.057 23.2065 139.636 22.7622C139.22 22.3081 138.947 21.8189 138.819 21.2947C138.7 20.7747 138.755 20.2565 138.985 19.7401C139.181 19.3016 139.456 18.9454 139.811 18.6717C140.171 18.3881 140.643 18.1664 141.228 18.0065C141.827 17.8412 142.574 17.7242 143.469 17.6555C144.235 17.5877 144.842 17.508 145.292 17.4162C145.755 17.3191 146.11 17.191 146.356 17.0319C146.606 16.8631 146.79 16.6472 146.907 16.3841C147.076 16.004 147.082 15.6385 146.923 15.2875C146.773 14.9408 146.46 14.6612 145.983 14.4486C145.466 14.2187 145.008 14.1723 144.608 14.3096C144.213 14.4372 143.924 14.7056 143.742 15.1148C143.651 15.3195 143.593 15.5274 143.569 15.7386C143.555 15.9541 143.586 16.2129 143.661 16.5152C143.747 16.8217 143.874 17.2171 144.044 17.7013L146.973 25.6782L146.067 26.0984L143.009 17.7835C142.828 17.2711 142.694 16.8378 142.607 16.4836C142.534 16.124 142.512 15.805 142.543 15.5267C142.573 15.2484 142.649 14.9728 142.771 14.6999C142.966 14.2614 143.237 13.927 143.585 13.6965C143.947 13.4606 144.362 13.3418 144.83 13.3399C145.302 13.3283 145.801 13.4397 146.327 13.6739C146.805 13.8865 147.182 14.1537 147.459 14.4756C147.75 14.792 147.926 15.1447 147.987 15.5335C148.057 15.9267 147.996 16.3377 147.805 16.7664C147.641 17.1367 147.394 17.4414 147.066 17.6806C146.747 17.924 146.314 18.1106 145.766 18.2402C145.222 18.36 144.515 18.4538 143.644 18.5215C142.878 18.5892 142.252 18.6841 141.766 18.8062C141.289 18.9326 140.917 19.0997 140.649 19.3074C140.386 19.5054 140.183 19.7652 140.039 20.0868C139.875 20.4571 139.832 20.8291 139.91 21.2028C140.003 21.5711 140.2 21.9156 140.501 22.2364C140.816 22.5518 141.217 22.8179 141.704 23.0348C142.386 23.3385 143.058 23.4684 143.72 23.4244C144.382 23.3805 145.021 23.1513 145.638 22.7369C146.264 22.3268 146.853 21.725 147.405 20.9315L148.121 21.5656C147.502 22.4576 146.821 23.1351 146.077 23.5982C145.334 24.0612 144.555 24.3158 143.741 24.3618C142.926 24.4078 142.1 24.2443 141.262 23.8712Z" fill="#F68B1D"/>
<path d="M152.234 29.6563C151.618 29.272 151.133 28.8305 150.778 28.3319C150.429 27.8243 150.227 27.3019 150.173 26.7648C150.127 26.2334 150.254 25.728 150.554 25.2486C150.808 24.8415 151.131 24.5272 151.521 24.3055C151.916 24.0748 152.415 23.921 153.017 23.8441C153.633 23.7637 154.389 23.7518 155.284 23.8082C156.052 23.8477 156.665 23.8533 157.123 23.825C157.595 23.7933 157.964 23.7158 158.23 23.5926C158.501 23.4603 158.713 23.272 158.866 23.0277C159.086 22.675 159.142 22.3137 159.034 21.944C158.934 21.5799 158.663 21.2594 158.22 20.9824C157.74 20.6829 157.293 20.5732 156.878 20.6535C156.469 20.7248 156.145 20.9504 155.908 21.3303C155.789 21.5203 155.703 21.7182 155.65 21.924C155.606 22.1354 155.601 22.396 155.633 22.7058C155.675 23.0213 155.746 23.4306 155.847 23.9337L157.637 32.2405L156.682 32.5306L154.811 23.871C154.703 23.3385 154.631 22.8908 154.594 22.5278C154.571 22.1615 154.594 21.8426 154.663 21.5713C154.732 21.2999 154.846 21.0376 155.004 20.7843C155.258 20.3772 155.574 20.0838 155.95 19.904C156.341 19.7208 156.769 19.6608 157.232 19.7241C157.702 19.7783 158.18 19.9581 158.669 20.2633C159.112 20.5403 159.449 20.8574 159.678 21.2147C159.922 21.5685 160.047 21.9422 160.053 22.3357C160.068 22.7348 159.951 23.1334 159.702 23.5314C159.487 23.8751 159.201 24.1426 158.842 24.3337C158.493 24.5304 158.038 24.6549 157.477 24.7069C156.922 24.7499 156.208 24.7443 155.337 24.6902C154.569 24.6507 153.936 24.6575 153.437 24.7107C152.948 24.7695 152.556 24.8832 152.262 25.0517C151.974 25.2111 151.736 25.4401 151.55 25.7386C151.335 26.0824 151.24 26.4448 151.267 26.8258C151.307 27.2034 151.454 27.572 151.708 27.9315C151.976 28.2877 152.336 28.6071 152.788 28.8897C153.421 29.2854 154.069 29.5075 154.73 29.556C155.391 29.6046 156.056 29.4666 156.724 29.142C157.402 28.8231 158.069 28.3092 158.726 27.6002L159.346 28.3277C158.609 29.1249 157.84 29.701 157.04 30.0561C156.24 30.4112 155.433 30.5549 154.62 30.4871C153.807 30.4194 153.011 30.1424 152.234 29.6563Z" fill="#F68B1D"/>
<path d="M162.293 36.912C161.738 36.4458 161.319 35.9411 161.036 35.398C160.761 34.8466 160.634 34.3013 160.655 33.7619C160.684 33.2293 160.88 32.7465 161.244 32.3135C161.552 31.9458 161.915 31.6793 162.332 31.5141C162.756 31.3407 163.271 31.2578 163.878 31.2653C164.499 31.2715 165.249 31.3649 166.128 31.5454C166.883 31.6914 167.489 31.7822 167.946 31.8179C168.419 31.8523 168.795 31.8269 169.075 31.7419C169.362 31.6486 169.598 31.4916 169.784 31.271C170.051 30.9524 170.157 30.6024 170.101 30.2212C170.053 29.8468 169.829 29.4916 169.428 29.1557C168.995 28.7923 168.568 28.6215 168.145 28.6433C167.73 28.6569 167.379 28.8353 167.091 29.1785C166.947 29.3501 166.834 29.534 166.753 29.7304C166.68 29.9337 166.638 30.191 166.627 30.5023C166.625 30.8205 166.638 31.2358 166.668 31.748L167.285 40.2231L166.299 40.3775L165.651 31.5418C165.618 30.9995 165.609 30.546 165.623 30.1814C165.651 29.8155 165.718 29.5029 165.824 29.2438C165.93 28.9847 166.079 28.7407 166.271 28.5119C166.58 28.1442 166.933 27.8976 167.331 27.7719C167.744 27.6449 168.175 27.645 168.626 27.7722C169.083 27.8912 169.532 28.1358 169.973 28.5061C170.374 28.842 170.663 29.2029 170.84 29.5886C171.033 29.973 171.105 30.3605 171.056 30.7509C171.015 31.1482 170.843 31.5266 170.542 31.8861C170.281 32.1966 169.96 32.4216 169.578 32.561C169.205 32.7072 168.737 32.7671 168.175 32.7406C167.619 32.7059 166.913 32.6011 166.057 32.4261C165.303 32.2801 164.675 32.1988 164.174 32.1821C163.681 32.1722 163.277 32.2302 162.962 32.3562C162.655 32.4739 162.388 32.6677 162.161 32.9373C161.901 33.2478 161.757 33.5935 161.73 33.9745C161.717 34.3541 161.812 34.7396 162.012 35.1309C162.228 35.5208 162.54 35.8872 162.949 36.23C163.521 36.71 164.131 37.02 164.779 37.1602C165.428 37.3003 166.105 37.2562 166.812 37.0278C167.527 36.8062 168.259 36.3901 169.008 35.7794L169.522 36.5863C168.681 37.2731 167.839 37.7366 166.997 37.9769C166.155 38.2171 165.336 38.2471 164.541 38.0669C163.745 37.8866 162.996 37.5017 162.293 36.912Z" fill="#F68B1D"/>
<path d="M171.245 45.4972C170.76 44.9582 170.415 44.4001 170.211 43.823C170.015 43.2387 169.965 42.6809 170.061 42.1497C170.164 41.6264 170.426 41.1756 170.846 40.7973C171.202 40.4761 171.599 40.2628 172.035 40.1572C172.479 40.0445 173 40.0341 173.6 40.126C174.214 40.2186 174.944 40.4154 175.789 40.7165C176.517 40.9661 177.104 41.1404 177.552 41.2394C178.015 41.3392 178.391 41.3665 178.681 41.3212C178.978 41.2688 179.234 41.1463 179.448 40.9536C179.757 40.6752 179.91 40.3434 179.908 39.9581C179.912 39.5807 179.74 39.1978 179.39 38.8093C179.012 38.3892 178.612 38.1606 178.191 38.1234C177.778 38.0791 177.405 38.2068 177.072 38.5066C176.906 38.6565 176.769 38.823 176.661 39.0062C176.56 39.1973 176.483 39.4462 176.429 39.7531C176.382 40.0679 176.338 40.4809 176.296 40.9923L175.727 49.4708L174.729 49.4865L175.317 40.6465C175.361 40.105 175.415 39.6546 175.479 39.2954C175.558 38.937 175.668 38.6369 175.809 38.3951C175.95 38.1532 176.132 37.9324 176.354 37.7325C176.71 37.4114 177.094 37.2162 177.506 37.1472C177.932 37.0789 178.36 37.139 178.788 37.3276C179.224 37.5091 179.635 37.8139 180.02 38.2419C180.37 38.6303 180.606 39.0279 180.728 39.4346C180.865 39.8421 180.883 40.2357 180.78 40.6155C180.684 41.0033 180.461 41.3541 180.113 41.6682C179.811 41.9394 179.462 42.1175 179.065 42.2024C178.675 42.2952 178.203 42.2894 177.65 42.1849C177.104 42.0732 176.42 41.8712 175.597 41.5788C174.87 41.3292 174.259 41.1613 173.765 41.075C173.279 40.9966 172.871 40.9979 172.542 41.0788C172.221 41.1526 171.929 41.3073 171.668 41.5428C171.366 41.814 171.176 42.1364 171.096 42.5098C171.031 42.8841 171.071 43.2789 171.215 43.6943C171.374 44.1105 171.633 44.5168 171.989 44.9131C172.489 45.468 173.05 45.86 173.673 46.0889C174.295 46.3179 174.972 46.3685 175.704 46.2407C176.443 46.1208 177.226 45.8107 178.052 45.3102L178.449 46.1806C177.52 46.7438 176.623 47.0857 175.755 47.2064C174.888 47.3271 174.073 47.2428 173.31 46.9536C172.547 46.6644 171.859 46.1789 171.245 45.4972Z" fill="#F68B1D"/>
<path d="M178.915 55.2447C178.51 54.6434 178.246 54.0428 178.125 53.4429C178.012 52.837 178.04 52.2777 178.209 51.765C178.383 51.2611 178.705 50.8511 179.174 50.535C179.572 50.2666 179.994 50.1104 180.44 50.0666C180.896 50.0168 181.414 50.0791 181.995 50.2535C182.59 50.4307 183.286 50.7272 184.081 51.143C184.766 51.4914 185.324 51.7457 185.753 51.9061C186.198 52.0694 186.567 52.1488 186.86 52.1442C187.161 52.1337 187.432 52.0479 187.67 51.8869C188.015 51.6543 188.213 51.347 188.264 50.9651C188.322 50.592 188.204 50.1888 187.912 49.7555C187.596 49.2868 187.232 49.0048 186.82 48.9094C186.417 48.808 186.03 48.8826 185.659 49.1331C185.473 49.2584 185.314 49.4042 185.182 49.5706C185.055 49.7458 184.944 49.9816 184.848 50.278C184.758 50.5832 184.657 50.9861 184.544 51.4866L182.801 59.8034L181.81 59.6801L183.623 51.0079C183.741 50.4777 183.857 50.0392 183.971 49.6925C184.099 49.3486 184.25 49.0668 184.423 48.8469C184.597 48.627 184.807 48.4336 185.055 48.2666C185.453 47.9982 185.86 47.8584 186.277 47.8473C186.709 47.839 187.124 47.9581 187.522 48.2044C187.928 48.4448 188.293 48.8038 188.615 49.2813C188.907 49.7146 189.085 50.1411 189.15 50.5609C189.229 50.9835 189.191 51.3757 189.036 51.7375C188.888 52.1081 188.619 52.4246 188.229 52.6871C187.893 52.9137 187.523 53.0415 187.118 53.0703C186.718 53.1079 186.252 53.0365 185.719 52.856C185.194 52.6695 184.544 52.3742 183.77 51.9701C183.085 51.6218 182.504 51.3705 182.026 51.2163C181.555 51.0709 181.151 51.0154 180.814 51.0497C180.486 51.0781 180.176 51.1908 179.884 51.3876C179.548 51.6143 179.314 51.9069 179.183 52.2656C179.067 52.6272 179.051 53.0237 179.136 53.4552C179.236 53.8895 179.435 54.3278 179.734 54.7699C180.151 55.3889 180.652 55.8551 181.237 56.1685C181.821 56.4819 182.485 56.6263 183.227 56.6015C183.976 56.5856 184.794 56.3874 185.682 56.0069L185.954 56.924C184.956 57.3525 184.019 57.5661 183.144 57.565C182.268 57.5638 181.473 57.3669 180.757 56.9743C180.042 56.5818 179.428 56.0052 178.915 55.2447Z" fill="#F68B1D"/>
<path d="M185.154 65.9648C184.836 65.3129 184.659 64.6814 184.622 64.0704C184.594 63.4547 184.7 62.9048 184.939 62.4206C185.182 61.9459 185.557 61.5847 186.065 61.3368C186.497 61.1264 186.937 61.0306 187.385 61.0493C187.843 61.0634 188.347 61.1971 188.898 61.4506C189.463 61.709 190.111 62.0995 190.84 62.6219C191.47 63.0622 191.987 63.3917 192.39 63.6103C192.808 63.8339 193.162 63.9638 193.453 64.0001C193.753 64.0317 194.032 63.9843 194.291 63.8581C194.665 63.6757 194.904 63.399 195.008 63.0279C195.116 62.6664 195.056 62.2508 194.827 61.781C194.579 61.2729 194.258 60.943 193.864 60.7912C193.479 60.6347 193.085 60.6547 192.682 60.8511C192.481 60.9493 192.303 61.0716 192.149 61.2179C192 61.3739 191.857 61.5919 191.72 61.872C191.589 62.1617 191.432 62.5466 191.251 63.0266L188.367 71.0198L187.404 70.7599L190.405 62.4244C190.597 61.9158 190.772 61.4977 190.933 61.1702C191.108 60.8475 191.297 60.5894 191.499 60.3958C191.701 60.2022 191.936 60.0399 192.205 59.909C192.636 59.6986 193.059 59.6169 193.474 59.6639C193.903 59.7158 194.297 59.8915 194.657 60.1908C195.026 60.4854 195.337 60.8916 195.589 61.4093C195.818 61.8791 195.935 62.3263 195.941 62.7509C195.96 63.1804 195.868 63.5635 195.665 63.9002C195.466 64.2465 195.155 64.5225 194.733 64.7283C194.369 64.906 193.984 64.9809 193.579 64.953C193.179 64.9348 192.727 64.7991 192.224 64.5461C191.73 64.2884 191.128 63.9056 190.417 63.3977C189.787 62.9573 189.247 62.6276 188.796 62.4085C188.349 62.199 187.957 62.0878 187.618 62.0749C187.289 62.0573 186.966 62.1257 186.65 62.28C186.286 62.4577 186.014 62.715 185.834 63.0519C185.668 63.3938 185.598 63.7843 185.622 64.2234C185.661 64.6674 185.797 65.1291 186.031 65.6085C186.358 66.2796 186.789 66.811 187.324 67.2027C187.86 67.5944 188.496 67.8296 189.235 67.9085C189.978 67.9969 190.816 67.9145 191.749 67.6613L191.89 68.6073C190.843 68.8927 189.885 68.9739 189.018 68.8509C188.151 68.7278 187.391 68.4222 186.737 67.9339C186.084 67.4457 185.556 66.7893 185.154 65.9648Z" fill="#F68B1D"/>
<path d="M189.84 77.4488C189.616 76.759 189.528 76.109 189.577 75.4988C189.635 74.8853 189.816 74.3554 190.12 73.9091C190.427 73.4729 190.849 73.1674 191.387 72.9927C191.843 72.8444 192.292 72.8107 192.733 72.8917C193.185 72.9693 193.666 73.172 194.176 73.4997C194.7 73.8342 195.286 74.3109 195.936 74.9298C196.499 75.4535 196.965 75.8517 197.334 76.1244C197.716 76.4039 198.049 76.5818 198.331 76.6582C198.624 76.7312 198.908 76.7232 199.182 76.6342C199.577 76.5057 199.852 76.2649 200.007 75.9119C200.165 75.569 200.163 75.1491 200.001 74.652C199.826 74.1143 199.554 73.7429 199.185 73.5377C198.825 73.3292 198.433 73.2942 198.007 73.4326C197.794 73.5018 197.601 73.5982 197.428 73.7217C197.258 73.8553 197.086 74.0513 196.912 74.3098C196.741 74.5783 196.533 74.9377 196.287 75.3878L192.318 82.9018L191.401 82.5103L195.533 74.6737C195.793 74.1967 196.025 73.8072 196.23 73.5051C196.448 73.2099 196.671 72.9806 196.898 72.817C197.125 72.6535 197.381 72.5255 197.665 72.4332C198.122 72.2849 198.552 72.2629 198.956 72.3671C199.373 72.4782 199.739 72.707 200.054 73.0535C200.378 73.3966 200.63 73.8421 200.808 74.3899C200.969 74.887 201.023 75.3462 200.969 75.7674C200.929 76.1955 200.784 76.5621 200.536 76.8672C200.291 77.1824 199.945 77.4125 199.498 77.5575C199.113 77.6828 198.721 77.7034 198.324 77.6195C197.93 77.5456 197.501 77.3484 197.038 77.0278C196.585 76.7039 196.042 76.2411 195.409 75.6392C194.847 75.1154 194.357 74.7137 193.941 74.4339C193.528 74.1643 193.155 73.9996 192.822 73.9397C192.498 73.8765 192.169 73.8993 191.834 74.0081C191.449 74.1334 191.144 74.3503 190.919 74.6589C190.707 74.9744 190.583 75.3512 190.546 75.7895C190.522 76.2346 190.593 76.7107 190.758 77.218C190.988 77.9281 191.341 78.5143 191.817 78.9767C192.292 79.439 192.89 79.7607 193.611 79.9415C194.335 80.1326 195.176 80.1676 196.135 80.0467L196.143 81.0031C195.066 81.1399 194.107 81.0871 193.265 80.8446C192.424 80.6021 191.713 80.1936 191.134 79.6192C190.555 79.0447 190.124 78.3212 189.84 77.4488Z" fill="#F68B1D"/>
<path d="M192.882 89.4733C192.756 88.759 192.76 88.1031 192.893 87.5056C193.036 86.9063 193.289 86.4067 193.652 86.007C194.017 85.6178 194.477 85.3741 195.034 85.2759C195.507 85.1925 195.956 85.2216 196.382 85.3632C196.818 85.5029 197.266 85.7705 197.726 86.166C198.198 86.5702 198.712 87.1239 199.27 87.8272C199.754 88.4241 200.16 88.8833 200.487 89.2047C200.827 89.5347 201.132 89.7572 201.401 89.8721C201.681 89.9852 201.963 90.0168 202.246 89.9668C202.656 89.8945 202.962 89.6944 203.164 89.3663C203.368 89.0487 203.424 88.6326 203.334 88.1179C203.236 87.5611 203.018 87.1554 202.68 86.9008C202.354 86.6443 201.97 86.555 201.528 86.6328C201.308 86.6717 201.103 86.7402 200.915 86.8385C200.728 86.9472 200.531 87.1174 200.322 87.3491C200.116 87.5913 199.86 87.9181 199.553 88.3296L194.578 95.2182L193.723 94.7028L198.906 87.5176C199.23 87.0814 199.514 86.728 199.759 86.4574C200.016 86.1954 200.269 85.9993 200.516 85.8689C200.764 85.7386 201.035 85.6475 201.329 85.5956C201.802 85.5123 202.231 85.5503 202.617 85.7098C203.015 85.8779 203.345 86.1554 203.608 86.5422C203.882 86.9272 204.069 87.4034 204.169 87.9706C204.26 88.4853 204.249 88.9475 204.137 89.3572C204.038 89.7755 203.844 90.1184 203.555 90.3859C203.268 90.6639 202.894 90.8437 202.431 90.9252C202.032 90.9956 201.642 90.9615 201.26 90.8231C200.88 90.6951 200.483 90.4402 200.069 90.0582C199.666 89.6745 199.192 89.1405 198.649 88.4564C198.165 87.8595 197.736 87.3935 197.363 87.0586C196.992 86.7341 196.645 86.519 196.323 86.4133C196.012 86.3058 195.683 86.2825 195.336 86.3437C194.937 86.4141 194.605 86.5864 194.339 86.8607C194.085 87.1437 193.91 87.4996 193.812 87.9284C193.727 88.3658 193.73 88.8472 193.823 89.3724C193.953 90.1077 194.221 90.7374 194.627 91.2615C195.034 91.7855 195.581 92.1872 196.27 92.4666C196.96 92.7565 197.788 92.9083 198.754 92.922L198.629 93.8702C197.543 93.8558 196.601 93.67 195.801 93.3128C195.002 92.9555 194.355 92.4521 193.862 91.8026C193.368 91.1532 193.042 90.3767 192.882 89.4733Z" fill="#F68B1D"/>
<path d="M194.222 101.804C194.196 101.079 194.291 100.43 194.506 99.857C194.731 99.2834 195.051 98.8239 195.466 98.4786C195.882 98.1439 196.372 97.9667 196.937 97.947C197.416 97.9302 197.857 98.0215 198.259 98.221C198.672 98.42 199.078 98.7474 199.478 99.203C199.889 99.669 200.322 100.289 200.776 101.063C201.172 101.721 201.51 102.233 201.79 102.596C202.08 102.97 202.351 103.233 202.602 103.385C202.863 103.536 203.138 103.606 203.426 103.596C203.842 103.581 204.172 103.426 204.418 103.129C204.664 102.843 204.778 102.439 204.76 101.916C204.74 101.351 204.581 100.919 204.282 100.62C203.994 100.321 203.627 100.179 203.179 100.194C202.955 100.202 202.743 100.242 202.543 100.313C202.343 100.394 202.123 100.536 201.885 100.736C201.647 100.947 201.347 101.235 200.987 101.6L195.101 107.729L194.326 107.1L200.459 100.706C200.84 100.319 201.171 100.008 201.451 99.7745C201.742 99.5509 202.02 99.3918 202.283 99.2972C202.547 99.2026 202.828 99.1501 203.126 99.1397C203.606 99.1229 204.025 99.2203 204.385 99.4319C204.756 99.6538 205.044 99.9746 205.251 100.394C205.469 100.814 205.587 101.311 205.607 101.887C205.626 102.409 205.551 102.865 205.383 103.255C205.226 103.656 204.986 103.968 204.663 104.193C204.341 104.429 203.945 104.554 203.476 104.571C203.071 104.585 202.689 104.497 202.33 104.307C201.971 104.127 201.614 103.819 201.257 103.383C200.911 102.947 200.517 102.353 200.074 101.6C199.677 100.941 199.318 100.42 198.995 100.036C198.672 99.6634 198.359 99.4022 198.055 99.2527C197.761 99.1029 197.439 99.0341 197.087 99.0464C196.682 99.0605 196.329 99.1849 196.027 99.4196C195.737 99.6645 195.514 99.9925 195.357 100.404C195.212 100.825 195.149 101.302 195.167 101.835C195.193 102.581 195.371 103.242 195.701 103.818C196.03 104.393 196.517 104.867 197.159 105.24C197.802 105.623 198.601 105.888 199.557 106.036L199.301 106.958C198.227 106.793 197.32 106.477 196.578 106.012C195.836 105.547 195.266 104.959 194.867 104.247C194.469 103.535 194.254 102.721 194.222 101.804Z" fill="#F68B1D"/>
<path d="M193.832 114.201C193.907 113.48 194.091 112.85 194.384 112.313C194.687 111.776 195.068 111.366 195.527 111.081C195.985 110.808 196.495 110.7 197.057 110.76C197.534 110.81 197.958 110.962 198.328 111.215C198.709 111.469 199.066 111.85 199.399 112.357C199.741 112.876 200.083 113.55 200.425 114.379C200.726 115.087 200.99 115.64 201.216 116.039C201.452 116.45 201.683 116.748 201.91 116.933C202.148 117.119 202.41 117.227 202.697 117.257C203.11 117.3 203.46 117.192 203.744 116.932C204.028 116.683 204.197 116.299 204.252 115.779C204.311 115.217 204.213 114.767 203.959 114.429C203.716 114.093 203.371 113.901 202.926 113.854C202.703 113.831 202.487 113.84 202.279 113.883C202.07 113.936 201.833 114.045 201.569 114.21C201.304 114.386 200.967 114.63 200.559 114.941L193.878 120.191L193.198 119.46L200.161 113.982C200.593 113.652 200.963 113.39 201.273 113.198C201.593 113.017 201.889 112.898 202.163 112.841C202.437 112.784 202.723 112.771 203.02 112.802C203.497 112.852 203.899 113.007 204.226 113.267C204.562 113.538 204.804 113.896 204.95 114.34C205.107 114.786 205.155 115.295 205.095 115.868C205.04 116.388 204.903 116.829 204.682 117.192C204.471 117.567 204.19 117.843 203.839 118.02C203.487 118.208 203.077 118.278 202.611 118.229C202.207 118.187 201.841 118.046 201.513 117.808C201.183 117.58 200.871 117.226 200.579 116.744C200.297 116.264 199.989 115.621 199.655 114.813C199.354 114.106 199.071 113.54 198.804 113.115C198.537 112.701 198.263 112.399 197.983 112.208C197.713 112.019 197.403 111.906 197.053 111.869C196.65 111.827 196.283 111.901 195.952 112.091C195.63 112.294 195.363 112.587 195.151 112.972C194.949 113.369 194.819 113.833 194.764 114.364C194.686 115.106 194.77 115.785 195.016 116.401C195.262 117.017 195.678 117.554 196.262 118.012C196.846 118.481 197.6 118.855 198.526 119.135L198.144 120.012C197.104 119.699 196.249 119.26 195.579 118.697C194.909 118.133 194.426 117.471 194.131 116.71C193.835 115.95 193.736 115.114 193.832 114.201Z" fill="#F68B1D"/>
<path d="M191.72 126.424C191.896 125.72 192.166 125.122 192.53 124.63C192.905 124.141 193.339 123.788 193.833 123.57C194.325 123.363 194.845 123.328 195.393 123.464C195.859 123.58 196.257 123.79 196.589 124.092C196.93 124.397 197.231 124.824 197.49 125.372C197.757 125.933 198.002 126.649 198.225 127.518C198.424 128.26 198.608 128.845 198.777 129.271C198.953 129.711 199.141 130.038 199.34 130.253C199.55 130.47 199.794 130.613 200.074 130.683C200.477 130.784 200.838 130.725 201.156 130.508C201.472 130.301 201.693 129.943 201.819 129.436C201.956 128.888 201.922 128.429 201.717 128.059C201.523 127.692 201.209 127.454 200.774 127.345C200.557 127.291 200.342 127.271 200.13 127.284C199.915 127.307 199.665 127.382 199.381 127.509C199.094 127.646 198.727 127.841 198.279 128.092L190.932 132.361L190.361 131.543L198.019 127.087C198.492 126.82 198.895 126.613 199.229 126.465C199.57 126.331 199.881 126.254 200.16 126.236C200.44 126.218 200.724 126.245 201.014 126.317C201.48 126.433 201.856 126.642 202.144 126.945C202.439 127.26 202.628 127.648 202.711 128.109C202.804 128.572 202.781 129.083 202.642 129.641C202.516 130.149 202.318 130.567 202.049 130.895C201.788 131.237 201.471 131.471 201.099 131.598C200.724 131.736 200.309 131.747 199.853 131.634C199.46 131.536 199.117 131.346 198.824 131.064C198.529 130.793 198.27 130.398 198.048 129.881C197.835 129.366 197.62 128.686 197.402 127.84C197.202 127.098 197 126.498 196.796 126.04C196.588 125.593 196.359 125.255 196.108 125.028C195.867 124.803 195.576 124.648 195.235 124.563C194.841 124.465 194.468 124.487 194.113 124.629C193.767 124.785 193.462 125.038 193.198 125.39C192.942 125.755 192.75 126.197 192.621 126.714C192.44 127.439 192.429 128.123 192.587 128.767C192.745 129.411 193.082 130.001 193.597 130.536C194.11 131.081 194.804 131.557 195.682 131.963L195.182 132.778C194.196 132.323 193.41 131.77 192.825 131.118C192.24 130.467 191.854 129.744 191.667 128.95C191.481 128.156 191.498 127.314 191.72 126.424Z" fill="#F68B1D"/>
<path d="M187.928 138.233C188.2 137.561 188.55 137.006 188.98 136.57C189.419 136.138 189.898 135.848 190.418 135.701C190.933 135.565 191.453 135.602 191.977 135.814C192.422 135.994 192.788 136.256 193.074 136.602C193.37 136.952 193.608 137.416 193.788 137.995C193.974 138.588 194.117 139.33 194.217 140.222C194.311 140.985 194.412 141.589 194.52 142.035C194.633 142.495 194.773 142.845 194.941 143.085C195.118 143.33 195.341 143.506 195.608 143.614C195.993 143.77 196.359 143.762 196.704 143.591C197.045 143.43 197.314 143.107 197.51 142.622C197.721 142.098 197.752 141.638 197.601 141.244C197.459 140.853 197.181 140.574 196.766 140.406C196.558 140.322 196.348 140.272 196.136 140.255C195.92 140.248 195.663 140.288 195.363 140.374C195.06 140.47 194.669 140.612 194.191 140.798L186.322 144.003L185.87 143.113L194.073 139.767C194.579 139.568 195.007 139.419 195.358 139.32C195.715 139.234 196.033 139.201 196.312 139.222C196.591 139.243 196.869 139.309 197.146 139.421C197.591 139.601 197.935 139.86 198.178 140.2C198.426 140.553 198.559 140.964 198.577 141.431C198.606 141.903 198.512 142.406 198.296 142.94C198.1 143.424 197.846 143.811 197.534 144.099C197.228 144.401 196.882 144.589 196.495 144.663C196.105 144.746 195.692 144.7 195.257 144.525C194.881 144.373 194.568 144.137 194.317 143.817C194.063 143.507 193.862 143.081 193.713 142.538C193.574 141.998 193.456 141.295 193.358 140.427C193.263 139.664 193.147 139.041 193.008 138.56C192.865 138.088 192.685 137.722 192.468 137.461C192.261 137.205 191.994 137.011 191.668 136.879C191.292 136.727 190.918 136.697 190.548 136.789C190.183 136.895 189.845 137.104 189.535 137.416C189.231 137.741 188.979 138.152 188.779 138.646C188.5 139.338 188.393 140.014 188.46 140.674C188.527 141.334 188.779 141.965 189.214 142.566C189.646 143.178 190.268 143.746 191.08 144.269L190.472 145.007C189.559 144.42 188.858 143.763 188.369 143.036C187.88 142.309 187.599 141.54 187.524 140.727C187.45 139.915 187.584 139.084 187.928 138.233Z" fill="#F68B1D"/>
<path d="M182.529 149.4C182.892 148.772 183.316 148.271 183.802 147.899C184.297 147.532 184.812 147.312 185.347 147.239C185.877 147.175 186.386 147.285 186.876 147.568C187.292 147.808 187.617 148.119 187.852 148.501C188.096 148.888 188.268 149.381 188.365 149.979C188.467 150.593 188.506 151.347 188.48 152.244C188.468 153.013 188.484 153.626 188.528 154.082C188.576 154.554 188.666 154.92 188.799 155.181C188.94 155.448 189.136 155.653 189.385 155.797C189.746 156.005 190.109 156.048 190.474 155.927C190.835 155.815 191.146 155.532 191.407 155.079C191.69 154.59 191.784 154.139 191.689 153.727C191.603 153.321 191.367 153.005 190.979 152.781C190.785 152.669 190.584 152.59 190.376 152.545C190.163 152.508 189.903 152.511 189.594 152.555C189.281 152.608 188.874 152.693 188.375 152.812L180.135 154.89L179.812 153.946L188.401 151.774C188.93 151.648 189.375 151.56 189.736 151.51C190.101 151.474 190.421 151.486 190.694 151.546C190.968 151.605 191.234 151.71 191.493 151.859C191.908 152.099 192.213 152.404 192.406 152.774C192.602 153.158 192.677 153.583 192.63 154.049C192.592 154.52 192.429 155.005 192.141 155.503C191.88 155.956 191.575 156.303 191.226 156.545C190.881 156.802 190.512 156.94 190.119 156.959C189.72 156.988 189.318 156.885 188.911 156.65C188.56 156.447 188.283 156.17 188.079 155.819C187.871 155.477 187.73 155.026 187.659 154.467C187.596 153.914 187.577 153.201 187.601 152.328C187.614 151.559 187.585 150.927 187.514 150.43C187.438 149.943 187.311 149.555 187.132 149.267C186.963 148.985 186.726 148.756 186.421 148.58C186.07 148.377 185.704 148.295 185.324 148.335C184.948 148.389 184.585 148.548 184.235 148.814C183.888 149.094 183.582 149.465 183.315 149.927C182.942 150.574 182.742 151.229 182.717 151.891C182.691 152.554 182.852 153.214 183.2 153.87C183.543 154.536 184.079 155.184 184.811 155.816L184.105 156.462C183.283 155.753 182.68 155.005 182.298 154.217C181.915 153.43 181.743 152.629 181.782 151.814C181.822 150.999 182.071 150.194 182.529 149.4Z" fill="#F68B1D"/>
<path d="M175.629 159.707C176.076 159.135 176.565 158.699 177.098 158.398C177.64 158.103 178.18 157.957 178.72 157.959C179.253 157.97 179.743 158.149 180.188 158.497C180.567 158.793 180.845 159.146 181.025 159.557C181.213 159.975 181.314 160.487 181.328 161.093C181.343 161.714 181.276 162.467 181.126 163.352C181.007 164.111 180.937 164.72 180.917 165.178C180.9 165.652 180.938 166.027 181.033 166.304C181.136 166.588 181.301 166.818 181.528 166.996C181.856 167.252 182.209 167.345 182.588 167.276C182.961 167.215 183.308 166.978 183.63 166.567C183.978 166.121 184.134 165.688 184.097 165.267C184.069 164.852 183.878 164.507 183.525 164.231C183.349 164.093 183.161 163.987 182.962 163.913C182.756 163.847 182.498 163.814 182.186 163.814C181.868 163.823 181.454 163.851 180.943 163.899L172.494 164.811L172.306 163.831L181.113 162.875C181.654 162.823 182.107 162.798 182.472 162.799C182.839 162.815 183.153 162.871 183.416 162.968C183.679 163.065 183.928 163.205 184.163 163.389C184.541 163.685 184.8 164.029 184.94 164.422C185.081 164.831 185.096 165.262 184.984 165.716C184.881 166.177 184.653 166.635 184.298 167.089C183.976 167.5 183.626 167.802 183.246 167.993C182.869 168.199 182.484 168.284 182.092 168.249C181.694 168.221 181.31 168.063 180.94 167.774C180.62 167.525 180.384 167.212 180.232 166.836C180.073 166.468 179.996 166.002 180.003 165.439C180.019 164.882 180.099 164.173 180.244 163.312C180.363 162.553 180.423 161.922 180.422 161.421C180.415 160.928 180.342 160.526 180.206 160.216C180.077 159.913 179.874 159.653 179.597 159.436C179.277 159.186 178.927 159.055 178.545 159.041C178.165 159.042 177.783 159.149 177.399 159.364C177.017 159.593 176.662 159.918 176.334 160.338C175.874 160.927 175.585 161.547 175.468 162.2C175.35 162.853 175.418 163.528 175.671 164.227C175.918 164.934 176.359 165.651 176.995 166.378L176.207 166.919C175.491 166.103 174.999 165.278 174.729 164.445C174.46 163.612 174.401 162.794 174.553 161.993C174.706 161.192 175.064 160.429 175.629 159.707Z" fill="#F68B1D"/>
<path d="M167.362 168.953C167.883 168.449 168.429 168.085 168.999 167.861C169.576 167.645 170.131 167.575 170.666 167.653C171.192 167.737 171.652 167.983 172.045 168.39C172.378 168.735 172.605 169.123 172.726 169.556C172.854 169.995 172.883 170.516 172.812 171.119C172.741 171.736 172.569 172.472 172.298 173.327C172.074 174.063 171.92 174.656 171.837 175.107C171.753 175.574 171.739 175.95 171.794 176.238C171.857 176.533 171.989 176.785 172.189 176.992C172.478 177.291 172.815 177.433 173.2 177.417C173.577 177.408 173.954 177.222 174.33 176.859C174.736 176.467 174.951 176.059 174.973 175.637C175.003 175.223 174.862 174.855 174.551 174.532C174.396 174.371 174.224 174.24 174.038 174.139C173.843 174.045 173.592 173.976 173.283 173.933C172.967 173.897 172.553 173.868 172.04 173.843L163.547 173.571L163.496 172.574L172.351 172.853C172.894 172.878 173.346 172.916 173.707 172.967C174.068 173.034 174.372 173.134 174.619 173.266C174.865 173.399 175.092 173.572 175.3 173.787C175.633 174.133 175.842 174.51 175.925 174.918C176.008 175.342 175.963 175.771 175.789 176.206C175.623 176.648 175.333 177.069 174.919 177.469C174.543 177.832 174.154 178.082 173.751 178.218C173.349 178.37 172.956 178.401 172.573 178.311C172.182 178.229 171.824 178.019 171.498 177.681C171.216 177.39 171.026 177.047 170.927 176.653C170.821 176.266 170.81 175.795 170.895 175.238C170.988 174.689 171.166 173.998 171.429 173.165C171.654 172.43 171.8 171.814 171.869 171.317C171.93 170.828 171.915 170.42 171.823 170.094C171.738 169.776 171.573 169.49 171.328 169.237C171.047 168.945 170.718 168.766 170.342 168.699C169.966 168.647 169.572 168.701 169.162 168.86C168.752 169.034 168.355 169.306 167.971 169.676C167.434 170.195 167.062 170.769 166.855 171.399C166.648 172.029 166.621 172.708 166.774 173.435C166.92 174.169 167.257 174.941 167.786 175.749L166.93 176.176C166.335 175.268 165.962 174.382 165.811 173.52C165.66 172.657 165.716 171.84 165.978 171.067C166.241 170.295 166.702 169.59 167.362 168.953Z" fill="#F68B1D"/>
<path d="M157.888 176.958C158.475 176.532 159.066 176.248 159.661 176.105C160.262 175.971 160.822 175.98 161.341 176.131C161.85 176.288 162.271 176.595 162.604 177.052C162.886 177.441 163.057 177.857 163.116 178.302C163.182 178.755 163.137 179.275 162.983 179.862C162.827 180.463 162.555 181.168 162.167 181.977C161.843 182.674 161.608 183.241 161.463 183.676C161.315 184.126 161.249 184.497 161.264 184.79C161.285 185.091 161.38 185.358 161.549 185.591C161.794 185.927 162.108 186.115 162.491 186.152C162.866 186.196 163.265 186.065 163.688 185.758C164.145 185.425 164.414 185.052 164.495 184.637C164.582 184.231 164.494 183.847 164.231 183.484C164.099 183.303 163.948 183.149 163.777 183.023C163.598 182.903 163.358 182.8 163.059 182.714C162.75 182.635 162.344 182.548 161.84 182.452L153.467 181L153.556 180.006L162.286 181.515C162.82 181.615 163.263 181.716 163.613 181.817C163.961 181.933 164.248 182.074 164.474 182.24C164.7 182.405 164.9 182.609 165.076 182.85C165.358 183.239 165.512 183.641 165.538 184.058C165.561 184.489 165.456 184.908 165.224 185.314C164.998 185.729 164.652 186.105 164.186 186.444C163.763 186.751 163.343 186.944 162.926 187.023C162.506 187.117 162.113 187.093 161.746 186.951C161.371 186.815 161.045 186.557 160.769 186.177C160.531 185.85 160.39 185.484 160.347 185.08C160.296 184.682 160.351 184.214 160.513 183.674C160.681 183.143 160.953 182.484 161.33 181.696C161.654 180.999 161.885 180.409 162.022 179.927C162.151 179.451 162.193 179.045 162.146 178.71C162.107 178.382 161.983 178.077 161.776 177.792C161.538 177.464 161.237 177.241 160.874 177.122C160.509 177.018 160.112 177.017 159.684 177.117C159.253 177.232 158.822 177.446 158.391 177.76C157.787 178.198 157.338 178.715 157.046 179.311C156.753 179.906 156.632 180.574 156.682 181.315C156.724 182.062 156.951 182.873 157.362 183.748L156.455 184.051C155.992 183.069 155.746 182.14 155.717 181.265C155.687 180.39 155.856 179.588 156.224 178.86C156.591 178.131 157.146 177.497 157.888 176.958Z" fill="#F68B1D"/>
<path d="M147.392 183.567C148.032 183.227 148.657 183.027 149.267 182.969C149.881 182.92 150.434 183.007 150.927 183.228C151.409 183.455 151.784 183.818 152.049 184.317C152.274 184.741 152.385 185.177 152.382 185.625C152.384 186.083 152.268 186.592 152.034 187.152C151.796 187.725 151.428 188.386 150.931 189.133C150.513 189.778 150.202 190.306 149.998 190.717C149.789 191.142 149.671 191.501 149.645 191.792C149.624 192.093 149.681 192.371 149.816 192.625C150.012 192.993 150.296 193.222 150.671 193.313C151.036 193.409 151.449 193.334 151.911 193.088C152.41 192.823 152.728 192.49 152.866 192.091C153.009 191.701 152.976 191.308 152.765 190.912C152.66 190.715 152.532 190.541 152.38 190.392C152.219 190.249 151.996 190.113 151.711 189.987C151.417 189.865 151.027 189.723 150.541 189.558L142.452 186.955L142.678 185.983L151.114 188.692C151.628 188.865 152.052 189.026 152.385 189.176C152.714 189.339 152.979 189.519 153.179 189.714C153.38 189.909 153.55 190.139 153.69 190.403C153.916 190.826 154.012 191.246 153.979 191.662C153.942 192.093 153.781 192.493 153.494 192.863C153.213 193.242 152.817 193.567 152.309 193.837C151.847 194.082 151.405 194.215 150.98 194.235C150.552 194.27 150.166 194.191 149.822 194C149.469 193.813 149.182 193.512 148.962 193.098C148.772 192.74 148.683 192.358 148.697 191.952C148.701 191.551 148.821 191.095 149.057 190.583C149.297 190.081 149.658 189.466 150.141 188.738C150.559 188.093 150.87 187.541 151.073 187.083C151.267 186.629 151.364 186.233 151.366 185.894C151.372 185.565 151.292 185.245 151.127 184.934C150.936 184.576 150.67 184.313 150.327 184.145C149.979 183.992 149.587 183.935 149.149 183.974C148.706 184.028 148.25 184.18 147.779 184.431C147.119 184.781 146.603 185.231 146.231 185.78C145.858 186.328 145.645 186.973 145.592 187.714C145.53 188.46 145.641 189.294 145.927 190.218L144.986 190.392C144.664 189.355 144.55 188.401 144.643 187.53C144.735 186.659 145.014 185.889 145.479 185.219C145.944 184.548 146.582 183.998 147.392 183.567Z" fill="#F68B1D"/>
<path d="M136.078 188.651C136.76 188.403 137.406 188.293 138.018 188.32C138.633 188.357 139.169 188.52 139.626 188.808C140.072 189.099 140.392 189.51 140.586 190.042C140.75 190.493 140.799 190.94 140.734 191.384C140.672 191.838 140.486 192.325 140.176 192.847C139.86 193.382 139.404 193.985 138.809 194.656C138.305 195.236 137.923 195.716 137.663 196.094C137.397 196.486 137.231 196.825 137.165 197.11C137.102 197.405 137.12 197.688 137.218 197.959C137.361 198.35 137.611 198.616 137.969 198.758C138.317 198.904 138.737 198.887 139.228 198.709C139.759 198.515 140.121 198.23 140.313 197.854C140.509 197.488 140.53 197.094 140.377 196.673C140.3 196.462 140.197 196.273 140.068 196.104C139.928 195.939 139.727 195.774 139.462 195.61C139.188 195.448 138.821 195.253 138.363 195.022L130.715 191.319L131.074 190.388L139.05 194.244C139.536 194.487 139.934 194.706 140.243 194.9C140.545 195.108 140.782 195.322 140.954 195.544C141.125 195.765 141.262 196.016 141.364 196.297C141.528 196.748 141.565 197.177 141.475 197.584C141.379 198.005 141.163 198.379 140.827 198.705C140.496 199.042 140.059 199.308 139.518 199.505C139.027 199.684 138.57 199.754 138.147 199.715C137.718 199.69 137.346 199.558 137.033 199.32C136.709 199.086 136.467 198.749 136.307 198.308C136.168 197.927 136.134 197.536 136.204 197.136C136.264 196.74 136.446 196.304 136.75 195.831C137.058 195.367 137.502 194.808 138.081 194.154C138.585 193.574 138.969 193.07 139.234 192.645C139.49 192.223 139.641 191.844 139.689 191.509C139.741 191.183 139.707 190.855 139.587 190.524C139.448 190.144 139.22 189.846 138.904 189.632C138.581 189.432 138.201 189.321 137.761 189.299C137.316 189.291 136.842 189.378 136.341 189.56C135.639 189.816 135.066 190.189 134.62 190.68C134.175 191.172 133.874 191.781 133.719 192.507C133.553 193.237 133.547 194.079 133.702 195.033L132.746 195.074C132.572 194.003 132.591 193.042 132.804 192.193C133.017 191.343 133.401 190.619 133.954 190.02C134.508 189.421 135.216 188.965 136.078 188.651Z" fill="#F68B1D"/>
<path d="M124.168 192.111C124.877 191.961 125.533 191.941 126.134 192.053C126.738 192.176 127.246 192.411 127.659 192.76C128.06 193.111 128.32 193.563 128.438 194.115C128.537 194.585 128.524 195.035 128.397 195.465C128.273 195.906 128.021 196.363 127.642 196.836C127.254 197.322 126.719 197.856 126.036 198.437C125.456 198.942 125.011 199.364 124.701 199.702C124.384 200.053 124.172 200.366 124.066 200.639C123.963 200.923 123.941 201.205 124.001 201.487C124.088 201.894 124.298 202.193 124.633 202.383C124.958 202.576 125.376 202.618 125.887 202.509C126.44 202.392 126.838 202.16 127.08 201.814C127.325 201.478 127.401 201.091 127.308 200.653C127.262 200.434 127.186 200.232 127.081 200.047C126.966 199.864 126.789 199.673 126.55 199.473C126.301 199.275 125.965 199.03 125.543 198.738L118.485 194.006L118.971 193.134L126.332 198.063C126.78 198.372 127.143 198.644 127.422 198.879C127.692 199.127 127.897 199.372 128.036 199.615C128.175 199.858 128.276 200.126 128.338 200.418C128.438 200.887 128.414 201.318 128.269 201.709C128.114 202.112 127.849 202.452 127.471 202.729C127.096 203.016 126.627 203.219 126.063 203.339C125.552 203.447 125.09 203.453 124.676 203.355C124.255 203.271 123.905 203.089 123.628 202.809C123.34 202.533 123.147 202.165 123.05 201.706C122.966 201.309 122.986 200.918 123.111 200.531C123.226 200.147 123.467 199.741 123.834 199.314C124.203 198.898 124.72 198.406 125.385 197.84C125.965 197.335 126.415 196.89 126.737 196.505C127.049 196.123 127.251 195.769 127.346 195.443C127.442 195.129 127.454 194.799 127.381 194.455C127.297 194.058 127.113 193.732 126.829 193.476C126.538 193.233 126.176 193.07 125.744 192.987C125.304 192.917 124.823 192.937 124.301 193.048C123.571 193.203 122.951 193.493 122.441 193.918C121.932 194.342 121.55 194.903 121.294 195.601C121.029 196.301 120.906 197.134 120.926 198.1L119.974 198.008C119.95 196.923 120.103 195.974 120.432 195.163C120.761 194.351 121.242 193.688 121.874 193.172C122.506 192.656 123.27 192.302 124.168 192.111Z" fill="#F68B1D"/>
<path d="M111.891 193.88C112.614 193.83 113.266 193.902 113.847 194.096C114.428 194.302 114.898 194.605 115.258 195.008C115.607 195.411 115.801 195.895 115.84 196.459C115.874 196.938 115.798 197.381 115.613 197.79C115.428 198.209 115.115 198.627 114.674 199.043C114.222 199.47 113.618 199.924 112.86 200.404C112.216 200.824 111.717 201.179 111.363 201.471C110.999 201.775 110.746 202.055 110.604 202.31C110.462 202.577 110.401 202.854 110.421 203.141C110.45 203.556 110.617 203.881 110.922 204.117C111.217 204.353 111.625 204.452 112.146 204.416C112.71 204.377 113.137 204.202 113.425 203.894C113.714 203.595 113.843 203.223 113.812 202.776C113.796 202.552 113.75 202.342 113.672 202.144C113.583 201.947 113.434 201.733 113.226 201.502C113.006 201.271 112.708 200.982 112.331 200.634L106 194.966L106.602 194.17L113.206 200.075C113.606 200.443 113.928 200.763 114.171 201.034C114.405 201.318 114.574 201.589 114.677 201.849C114.781 202.109 114.843 202.388 114.864 202.686C114.898 203.165 114.815 203.588 114.616 203.955C114.407 204.333 114.097 204.632 113.685 204.854C113.273 205.086 112.78 205.222 112.205 205.262C111.684 205.298 111.226 205.24 110.83 205.085C110.424 204.943 110.103 204.714 109.868 204.399C109.621 204.085 109.481 203.693 109.449 203.225C109.42 202.821 109.495 202.436 109.673 202.071C109.84 201.706 110.135 201.338 110.558 200.966C110.982 200.605 111.562 200.19 112.299 199.722C112.944 199.303 113.452 198.925 113.824 198.589C114.185 198.253 114.436 197.931 114.574 197.622C114.714 197.324 114.771 196.999 114.747 196.648C114.719 196.243 114.582 195.895 114.337 195.602C114.082 195.32 113.746 195.108 113.33 194.966C112.904 194.836 112.425 194.789 111.893 194.826C111.148 194.878 110.494 195.079 109.93 195.429C109.366 195.778 108.91 196.281 108.56 196.936C108.199 197.592 107.962 198.4 107.847 199.36L106.917 199.136C107.045 198.058 107.328 197.14 107.767 196.382C108.206 195.624 108.774 195.034 109.472 194.611C110.169 194.188 110.976 193.944 111.891 193.88Z" fill="#F68B1D"/>
</svg>
